<svg xmlns="http://www.w3.org/2000/svg" width="1600" height="552" viewBox="0 0 1600 552">
<rect width="100%" height="100%" fill="#071013"/>
<text x="12" y="20" fill="#9fd8c8" font-family="monospace" font-size="14">Block 08 Pass 01</text>
<text x="12" y="32" fill="#d6c56d" font-family="monospace" font-size="11">AC_001</text>
<path d="M37.7,270.0L37.7,267.2M37.7,267.2L37.7,264.4M37.7,264.4L38.9,261.5M37.7,264.4L37.7,261.3M37.7,261.3L37.7,258.5M37.7,258.5L38.4,255.6M38.4,255.6L39.2,252.6M37.7,258.5L37.7,255.6M37.7,255.6L37.7,252.8M37.7,252.8L37.7,249.7M37.7,249.7L37.7,246.7M37.7,246.7L38.7,243.8M37.7,246.7L38.6,244.0M38.6,244.0L39.7,241.2M39.7,241.2L40.7,238.3M40.7,238.3L41.8,235.4M41.8,235.4L43.4,233.0M37.7,246.7L37.7,243.7M37.7,243.7L37.7,240.9M37.7,240.9L37.7,238.1M37.7,238.1L37.7,235.1M37.7,235.1L38.9,232.1M37.7,235.1L37.7,232.3M37.7,232.3L37.7,229.5M37.7,229.5L38.4,226.5M37.7,229.5L37.7,226.5M37.7,226.5L37.7,223.5M37.7,223.5L38.8,220.7M38.8,220.7L39.8,218.1M37.7,223.5L38.8,220.7M38.8,220.7L39.9,218.0M39.9,218.0L41.0,215.2M41.0,215.2L42.1,212.2M42.1,212.2L44.2,210.1M42.1,212.2L43.3,209.4M43.3,209.4L44.3,206.8M44.3,206.8L46.4,204.5M44.3,206.8L45.4,203.8M45.4,203.8L46.5,201.2M46.5,201.2L48.1,198.8M48.1,198.8L49.9,196.3M37.7,223.5L37.7,220.7M37.7,220.7L37.7,217.5M37.7,217.5L37.7,214.7M37.7,214.7L37.7,211.8M37.7,211.8L38.3,209.1M37.7,211.8L37.7,208.9M37.7,208.9L37.7,206.1M37.7,206.1L38.9,203.3M37.7,206.1L37.7,203.3M37.7,203.3L37.7,200.1M37.7,200.1L38.6,197.3M38.6,197.3L39.5,194.3M37.7,200.1L37.7,196.9M37.7,196.9L37.7,194.0M37.7,194.0L38.6,191.1M37.7,194.0L37.7,191.0M37.7,191.0L37.7,188.0M37.7,188.0L38.8,185.2M38.8,185.2L39.9,182.2M37.7,188.0L37.7,184.9M37.7,184.9L37.7,181.8M37.7,181.8L37.7,178.6M37.7,178.6L37.7,175.7M37.7,175.7L38.8,173.0M37.7,175.7L38.3,173.0M38.3,173.0L38.9,170.1M38.9,170.1L39.5,167.1M39.5,167.1L40.2,164.2M40.2,164.2L41.5,161.3M37.7,175.7L38.4,172.8M38.4,172.8L39.1,169.6M39.1,169.6L39.8,166.9M39.8,166.9L40.4,164.2M40.4,164.2L42.0,161.5M40.4,164.2L41.0,161.4M41.0,161.4L41.8,158.3M41.8,158.3L43.2,155.7M41.8,158.3L42.5,155.2M42.5,155.2L43.2,152.2M43.2,152.2L44.6,149.4M44.6,149.4L45.8,146.9M43.2,152.2L43.9,149.2M43.9,149.2L44.6,146.2M44.6,146.2L46.1,143.8M44.6,146.2L45.3,143.2M45.3,143.2L46.0,140.3M46.0,140.3L47.8,137.7M47.8,137.7L49.6,135.2M46.0,140.3L46.6,137.5M46.6,137.5L47.3,134.6M47.3,134.6L48.0,131.5M48.0,131.5L48.7,128.6M48.7,128.6L50.6,126.1M48.7,128.6L50.5,126.2M50.5,126.2L52.2,123.9M52.2,123.9L54.1,121.4M54.1,121.4L55.8,119.1M55.8,119.1L58.1,117.5M37.7,175.7L36.8,172.7M36.8,172.7L36.1,169.9M36.1,169.9L35.3,167.2M35.3,167.2L34.5,164.4M34.5,164.4L34.7,161.3M34.5,164.4L33.7,161.3M33.7,161.3L32.9,158.6M32.9,158.6L32.8,155.5M32.9,158.6L32.2,155.9M32.2,155.9L31.3,152.8M31.3,152.8L31.3,150.0M31.3,150.0L31.3,146.9M31.3,152.8L30.5,149.9M30.5,149.9L29.7,147.2M29.7,147.2L30.2,144.1M29.7,147.2L28.9,144.4M28.9,144.4L28.2,141.6M28.2,141.6L28.4,138.5M28.4,138.5L28.7,135.3M28.2,141.6L27.4,138.9M27.4,138.9L26.6,135.9M26.6,135.9L25.8,133.1M25.8,133.1L24.9,130.0M24.9,130.0L24.9,127.1M24.9,130.0L25.2,127.3M25.2,127.3L25.5,124.4M25.5,124.4L25.8,121.5M25.8,121.5L26.1,118.3M26.1,118.3L27.1,115.6M24.9,130.0L24.1,127.1M24.1,127.1L23.3,124.0M23.3,124.0L23.4,121.1M23.3,124.0L22.4,121.1M22.4,121.1L21.6,118.2M21.6,118.2L22.0,115.1M22.0,115.1L22.3,111.9M21.6,118.2L20.9,115.4M20.9,115.4L20.1,112.6M20.1,112.6L19.2,109.6M19.2,109.6L18.4,106.6M18.4,106.6L18.4,103.5M18.4,106.6L18.5,103.4M18.5,103.4L18.5,100.3M18.5,100.3L18.5,97.2M18.5,97.2L18.5,94.1M18.5,94.1L19.3,91.3M18.4,106.6L17.7,104.0M17.7,104.0L16.8,101.0M16.8,101.0L16.0,98.1M16.0,98.1L15.3,95.4M15.3,95.4L15.1,92.4M15.3,95.4L14.5,92.5M14.5,92.5L13.6,89.5M13.6,89.5L13.8,86.7M13.6,89.5L12.8,86.6M12.8,86.6L12.0,83.6M12.0,83.6L12.2,80.7M12.2,80.7L12.4,77.5M12.0,83.6L12.3,80.8M12.3,80.8L12.6,78.1M12.6,78.1L13.0,75.1M13.0,75.1L13.4,71.9M13.4,71.9L14.9,69.1M13.4,71.9L13.7,68.7M13.7,68.7L14.1,65.5M14.1,65.5L15.5,63.0M14.1,65.5L14.5,62.4M14.5,62.4L14.8,59.5M14.8,59.5L16.1,56.7M16.1,56.7L17.4,54.0" fill="none" stroke="#9fd8c8" stroke-width="0.7" stroke-linecap="round"/>
<circle cx="37.69" cy="264.38" r="1.6" fill="#8adf77"/>
<circle cx="37.69" cy="258.51" r="2.1" fill="#d6c56d"/>
<circle cx="37.69" cy="258.51" r="1.6" fill="#8adf77"/>
<circle cx="37.69" cy="252.82" r="2.1" fill="#d6c56d"/>
<circle cx="37.69" cy="246.67" r="1.6" fill="#8adf77"/>
<circle cx="37.69" cy="246.67" r="2.1" fill="#d6c56d"/>
<circle cx="37.69" cy="246.67" r="1.6" fill="#8adf77"/>
<circle cx="41.75" cy="235.42" r="1.6" fill="#8adf77"/>
<circle cx="37.69" cy="240.93" r="2.1" fill="#d6c56d"/>
<circle cx="37.69" cy="235.06" r="1.6" fill="#8adf77"/>
<circle cx="37.69" cy="235.06" r="2.1" fill="#d6c56d"/>
<circle cx="37.69" cy="229.53" r="1.6" fill="#8adf77"/>
<circle cx="37.69" cy="223.46" r="2.1" fill="#d6c56d"/>
<circle cx="37.69" cy="223.46" r="1.6" fill="#8adf77"/>
<circle cx="37.69" cy="223.46" r="2.1" fill="#d6c56d"/>
<circle cx="37.69" cy="223.46" r="1.6" fill="#8adf77"/>
<circle cx="42.12" cy="212.23" r="1.6" fill="#8adf77"/>
<circle cx="44.28" cy="206.75" r="1.6" fill="#8adf77"/>
<circle cx="46.49" cy="201.16" r="2.1" fill="#d6c56d"/>
<circle cx="46.49" cy="201.16" r="1.6" fill="#8adf77"/>
<circle cx="37.69" cy="217.53" r="2.1" fill="#d6c56d"/>
<circle cx="37.69" cy="211.85" r="1.6" fill="#8adf77"/>
<circle cx="37.69" cy="211.85" r="2.1" fill="#d6c56d"/>
<circle cx="37.69" cy="206.10" r="1.6" fill="#8adf77"/>
<circle cx="37.69" cy="200.10" r="2.1" fill="#d6c56d"/>
<circle cx="37.69" cy="200.10" r="1.6" fill="#8adf77"/>
<circle cx="37.69" cy="200.10" r="2.1" fill="#d6c56d"/>
<circle cx="37.69" cy="193.96" r="1.6" fill="#8adf77"/>
<circle cx="37.69" cy="188.04" r="2.1" fill="#d6c56d"/>
<circle cx="37.69" cy="188.04" r="1.6" fill="#8adf77"/>
<circle cx="37.69" cy="181.77" r="2.1" fill="#d6c56d"/>
<circle cx="37.69" cy="175.74" r="1.6" fill="#8adf77"/>
<circle cx="37.69" cy="175.74" r="2.1" fill="#d6c56d"/>
<circle cx="37.69" cy="175.74" r="1.6" fill="#8adf77"/>
<circle cx="40.15" cy="164.22" r="1.6" fill="#8adf77"/>
<circle cx="37.69" cy="175.74" r="2.1" fill="#d6c56d"/>
<circle cx="37.69" cy="175.74" r="1.6" fill="#8adf77"/>
<circle cx="40.39" cy="164.20" r="1.6" fill="#8adf77"/>
<circle cx="41.77" cy="158.31" r="1.6" fill="#8adf77"/>
<circle cx="43.20" cy="152.18" r="2.1" fill="#d6c56d"/>
<circle cx="43.20" cy="152.18" r="1.6" fill="#8adf77"/>
<circle cx="44.60" cy="146.18" r="1.6" fill="#8adf77"/>
<circle cx="45.98" cy="140.29" r="2.1" fill="#d6c56d"/>
<circle cx="45.98" cy="140.29" r="1.6" fill="#8adf77"/>
<circle cx="47.30" cy="134.62" r="2.1" fill="#d6c56d"/>
<circle cx="48.71" cy="128.59" r="1.6" fill="#8adf77"/>
<circle cx="48.71" cy="128.59" r="2.1" fill="#d6c56d"/>
<circle cx="48.71" cy="128.59" r="1.6" fill="#8adf77"/>
<circle cx="55.82" cy="119.14" r="1.6" fill="#8adf77"/>
<circle cx="36.05" cy="169.87" r="2.1" fill="#d6c56d"/>
<circle cx="34.52" cy="164.37" r="1.6" fill="#8adf77"/>
<circle cx="34.52" cy="164.37" r="2.1" fill="#d6c56d"/>
<circle cx="32.91" cy="158.58" r="1.6" fill="#8adf77"/>
<circle cx="31.30" cy="152.83" r="2.1" fill="#d6c56d"/>
<circle cx="31.30" cy="152.83" r="1.6" fill="#8adf77"/>
<circle cx="31.30" cy="152.83" r="2.1" fill="#d6c56d"/>
<circle cx="29.74" cy="147.24" r="1.6" fill="#8adf77"/>
<circle cx="28.17" cy="141.60" r="2.1" fill="#d6c56d"/>
<circle cx="28.17" cy="141.60" r="1.6" fill="#8adf77"/>
<circle cx="26.59" cy="135.94" r="2.1" fill="#d6c56d"/>
<circle cx="24.94" cy="130.04" r="1.6" fill="#8adf77"/>
<circle cx="24.94" cy="130.04" r="2.1" fill="#d6c56d"/>
<circle cx="24.94" cy="130.04" r="1.6" fill="#8adf77"/>
<circle cx="26.13" cy="118.29" r="1.6" fill="#8adf77"/>
<circle cx="24.94" cy="130.04" r="2.1" fill="#d6c56d"/>
<circle cx="23.25" cy="123.96" r="1.6" fill="#8adf77"/>
<circle cx="21.65" cy="118.22" r="2.1" fill="#d6c56d"/>
<circle cx="21.65" cy="118.22" r="1.6" fill="#8adf77"/>
<circle cx="20.07" cy="112.57" r="2.1" fill="#d6c56d"/>
<circle cx="18.42" cy="106.64" r="1.6" fill="#8adf77"/>
<circle cx="18.42" cy="106.64" r="2.1" fill="#d6c56d"/>
<circle cx="18.42" cy="106.64" r="1.6" fill="#8adf77"/>
<circle cx="18.55" cy="94.14" r="1.6" fill="#8adf77"/>
<circle cx="16.85" cy="101.01" r="2.1" fill="#d6c56d"/>
<circle cx="15.27" cy="95.36" r="1.6" fill="#8adf77"/>
<circle cx="15.27" cy="95.36" r="2.1" fill="#d6c56d"/>
<circle cx="13.64" cy="89.49" r="1.6" fill="#8adf77"/>
<circle cx="12.00" cy="83.62" r="2.1" fill="#d6c56d"/>
<circle cx="12.00" cy="83.62" r="1.6" fill="#8adf77"/>
<circle cx="12.00" cy="83.62" r="2.1" fill="#d6c56d"/>
<circle cx="12.00" cy="83.62" r="1.6" fill="#8adf77"/>
<circle cx="13.36" cy="71.87" r="1.6" fill="#8adf77"/>
<circle cx="14.10" cy="65.53" r="1.6" fill="#8adf77"/>
<circle cx="14.79" cy="59.52" r="2.1" fill="#d6c56d"/>
<circle cx="14.79" cy="59.52" r="1.6" fill="#8adf77"/>
<circle cx="12.00" cy="83.62" r="2.1" fill="#d6c56d"/>
<circle cx="37.69" cy="175.74" r="2.1" fill="#d6c56d"/>
<circle cx="37.69" cy="175.74" r="1.6" fill="#8adf77"/>
<text x="332" y="32" fill="#d6c56d" font-family="monospace" font-size="11">AC_002</text>
<path d="M364.3,270.0L364.3,267.5M364.3,267.5L364.3,264.9M364.3,264.9L365.1,262.5M364.3,264.9L364.3,262.3M364.3,262.3L364.3,259.5M364.3,259.5L365.3,256.8M365.3,256.8L366.3,254.3M364.3,259.5L364.3,256.7M364.3,256.7L364.3,254.2M364.3,254.2L364.3,251.6M364.3,251.6L364.3,248.8M364.3,248.8L365.3,246.1M364.3,248.8L365.5,246.7M365.5,246.7L366.8,244.5M366.8,244.5L368.1,242.2M368.1,242.2L369.4,240.0M364.3,248.8L364.3,246.0M364.3,246.0L364.3,243.2M364.3,243.2L364.3,240.7M364.3,240.7L364.3,237.8M364.3,237.8L365.2,235.4M364.3,237.8L364.3,234.9M364.3,234.9L364.3,232.2M364.3,232.2L365.5,230.1M364.3,232.2L364.3,229.5M364.3,229.5L364.3,226.9M364.3,226.9L365.6,224.4M365.6,224.4L366.8,222.1M364.3,226.9L365.7,224.5M365.7,224.5L367.1,222.0M367.1,222.0L368.4,219.8M368.4,219.8L369.8,217.3M369.8,217.3L371.2,215.0M371.2,215.0L372.6,212.6M372.6,212.6L374.0,210.1M374.0,210.1L375.3,207.9M375.3,207.9L377.6,206.5M364.3,226.9L364.3,224.1M364.3,224.1L364.3,221.4M364.3,221.4L364.3,218.7M364.3,218.7L364.3,216.2M364.3,216.2L365.3,213.8M364.3,216.2L364.3,213.3M364.3,213.3L364.3,210.6M364.3,210.6L365.2,207.9M364.3,210.6L364.3,208.1M364.3,208.1L364.3,205.5M364.3,205.5L365.3,203.1M365.3,203.1L366.3,200.6M364.3,205.5L364.3,202.8M364.3,202.8L364.3,200.1M364.3,200.1L365.2,197.3M364.3,200.1L364.3,197.2M364.3,197.2L364.3,194.6M364.3,194.6L365.1,191.9M365.1,191.9L365.9,189.2M364.3,194.6L364.3,192.0M364.3,192.0L364.3,189.2M364.3,189.2L364.3,186.5M364.3,186.5L364.3,183.8M364.3,183.8L365.5,181.6M364.3,183.8L365.0,181.3M365.0,181.3L365.8,178.6M365.8,178.6L366.6,175.9M366.6,175.9L367.4,173.2M364.3,183.8L365.0,181.3M365.0,181.3L365.8,178.6M365.8,178.6L366.6,176.1M366.6,176.1L367.4,173.5M367.4,173.5L368.1,171.1M368.1,171.1L368.8,168.6M368.8,168.6L369.6,166.2M369.6,166.2L370.3,163.7M370.3,163.7L372.0,161.6M370.3,163.7L371.1,161.2M371.1,161.2L371.9,158.6M371.9,158.6L372.7,155.9M372.7,155.9L373.5,153.3M373.5,153.3L375.3,151.6M373.5,153.3L374.3,150.6M374.3,150.6L375.1,148.1M375.1,148.1L377.0,146.1M375.1,148.1L375.8,145.7M375.8,145.7L376.5,143.2M376.5,143.2L378.3,141.0M378.3,141.0L380.0,138.9M364.3,183.8L363.2,181.2M363.2,181.2L362.1,178.5M362.1,178.5L361.2,176.2M361.2,176.2L360.2,173.6M360.2,173.6L360.2,171.1M360.2,173.6L359.1,171.1M359.1,171.1L358.2,168.7M358.2,168.7L358.2,165.9M358.2,168.7L357.2,166.3M357.2,166.3L356.1,163.7M356.1,163.7L356.5,161.2M356.5,161.2L356.8,158.5M356.1,163.7L355.1,161.2M355.1,161.2L354.2,158.8M354.2,158.8L354.0,156.0M354.2,158.8L353.2,156.5M353.2,156.5L352.2,154.0M352.2,154.0L352.4,151.3M352.4,151.3L352.6,148.6M352.2,154.0L351.2,151.4M351.2,151.4L350.2,149.0M350.2,149.0L349.2,146.5M349.2,146.5L348.2,144.0M348.2,144.0L348.3,141.2M348.2,144.0L348.5,141.2M348.5,141.2L348.9,138.5M348.9,138.5L349.2,135.6M349.2,135.6L349.6,133.0M348.2,144.0L347.1,141.5M347.1,141.5L346.2,139.1M346.2,139.1L346.4,136.2M346.2,139.1L345.2,136.5M345.2,136.5L344.2,134.1M344.2,134.1L343.9,131.2M343.9,131.2L343.7,128.4M344.2,134.1L343.2,131.6M343.2,131.6L342.1,129.0M342.1,129.0L341.1,126.4M341.1,126.4L340.0,123.9M340.0,123.9L339.9,121.2M340.0,123.9L340.1,121.3M340.1,121.3L340.1,118.6M340.1,118.6L340.2,116.1M340.2,116.1L340.2,113.4M340.0,123.9L339.0,121.3M339.0,121.3L338.1,119.0M338.1,119.0L337.1,116.6M337.1,116.6L336.0,114.0M336.0,114.0L336.5,111.2M336.0,114.0L335.1,111.6M335.1,111.6L334.1,109.2M334.1,109.2L334.2,106.5M334.1,109.2L333.0,106.5M333.0,106.5L332.0,104.1M332.0,104.1L332.0,101.5M332.0,101.5L332.0,98.9M332.0,104.1L332.4,101.5M332.4,101.5L332.8,98.8M332.8,98.8L333.1,96.0M333.1,96.0L333.5,93.2M333.5,93.2L333.9,90.4M333.9,90.4L334.3,87.8M334.3,87.8L334.6,85.3M334.6,85.3L335.0,82.7M335.0,82.7L336.1,80.3M364.3,183.8L364.3,181.2M364.3,181.2L364.3,178.7M364.3,178.7L365.6,176.5M364.3,178.7L364.3,175.8M364.3,175.8L364.3,173.0M364.3,173.0L365.3,170.3M365.3,170.3L366.2,167.8M364.3,173.0L364.3,170.4M364.3,170.4L364.3,167.8M364.3,167.8L364.3,165.0M364.3,165.0L364.3,162.2M364.3,162.2L365.0,159.6M364.3,162.2L365.0,159.5M365.0,159.5L365.8,156.8M365.8,156.8L366.6,154.0M366.6,154.0L367.4,151.2M364.3,162.2L364.3,159.3M364.3,159.3L364.3,156.6M364.3,156.6L364.3,154.0M364.3,154.0L364.3,151.2M364.3,151.2L365.4,149.0M364.3,151.2L364.3,148.3M364.3,148.3L364.3,145.5M364.3,145.5L365.5,142.9M364.3,145.5L364.3,142.6M364.3,142.6L364.3,140.0M364.3,140.0L365.6,137.6M365.6,137.6L366.9,135.2M364.3,140.0L365.0,137.5M365.0,137.5L365.7,135.1M365.7,135.1L366.5,132.5M366.5,132.5L367.2,130.0M367.2,130.0L368.0,127.5M368.0,127.5L368.7,125.1M368.7,125.1L369.4,122.6M369.4,122.6L370.2,120.1M370.2,120.1L372.1,118.3M364.3,140.0L364.3,137.4M364.3,137.4L364.3,134.7M364.3,134.7L364.3,132.1M364.3,132.1L364.3,129.4M364.3,129.4L365.5,126.9M364.3,129.4L364.3,126.9M364.3,126.9L364.3,124.1M364.3,124.1L365.4,121.8M364.3,124.1L364.3,121.6M364.3,121.6L364.3,118.8M364.3,118.8L365.4,116.1M365.4,116.1L366.5,113.7M364.3,118.8L364.3,116.1M364.3,116.1L364.3,113.3M364.3,113.3L365.3,111.0M364.3,113.3L364.3,110.7M364.3,110.7L364.3,108.1M364.3,108.1L365.2,105.8M365.2,105.8L366.3,103.1M364.3,108.1L364.3,105.5M364.3,105.5L364.3,102.9M364.3,102.9L364.3,100.1M364.3,100.1L364.3,97.5M364.3,97.5L365.7,95.0M364.3,97.5L365.6,95.1M365.6,95.1L366.9,92.9M366.9,92.9L368.2,90.6M368.2,90.6L369.6,88.2M364.3,97.5L365.3,95.2M365.3,95.2L366.4,92.5M366.4,92.5L367.5,90.2M367.5,90.2L368.6,87.6M368.6,87.6L369.7,85.1M369.7,85.1L370.8,82.5M370.8,82.5L371.8,80.2M371.8,80.2L373.0,77.5M373.0,77.5L375.1,76.0M373.0,77.5L374.1,75.0M374.1,75.0L375.2,72.4M375.2,72.4L376.3,69.9M376.3,69.9L377.4,67.3M377.4,67.3L379.3,65.1M377.4,67.3L378.6,64.8M378.6,64.8L379.6,62.5M379.6,62.5L381.5,60.7M379.6,62.5L380.7,59.9M380.7,59.9L381.8,57.3M381.8,57.3L383.8,55.7M383.8,55.7L385.9,54.0" fill="none" stroke="#9fd8c8" stroke-width="0.7" stroke-linecap="round"/>
<circle cx="364.26" cy="264.89" r="2.1" fill="#d6c56d"/>
<circle cx="364.26" cy="259.48" r="1.6" fill="#8adf77"/>
<circle cx="364.26" cy="259.48" r="2.1" fill="#d6c56d"/>
<circle cx="364.26" cy="254.20" r="1.6" fill="#8adf77"/>
<circle cx="364.26" cy="248.82" r="2.1" fill="#d6c56d"/>
<circle cx="364.26" cy="248.82" r="1.6" fill="#8adf77"/>
<circle cx="364.26" cy="248.82" r="2.1" fill="#d6c56d"/>
<circle cx="369.36" cy="240.03" r="1.6" fill="#8adf77"/>
<circle cx="364.26" cy="243.18" r="1.6" fill="#8adf77"/>
<circle cx="364.26" cy="237.80" r="2.1" fill="#d6c56d"/>
<circle cx="364.26" cy="237.80" r="1.6" fill="#8adf77"/>
<circle cx="364.26" cy="232.22" r="2.1" fill="#d6c56d"/>
<circle cx="364.26" cy="226.92" r="1.6" fill="#8adf77"/>
<circle cx="364.26" cy="226.92" r="2.1" fill="#d6c56d"/>
<circle cx="364.26" cy="226.92" r="1.6" fill="#8adf77"/>
<circle cx="364.26" cy="226.92" r="2.1" fill="#d6c56d"/>
<circle cx="369.83" cy="217.32" r="1.6" fill="#8adf77"/>
<circle cx="372.59" cy="212.56" r="1.6" fill="#8adf77"/>
<circle cx="375.28" cy="207.92" r="2.1" fill="#d6c56d"/>
<circle cx="375.28" cy="207.92" r="1.6" fill="#8adf77"/>
<circle cx="364.26" cy="221.41" r="1.6" fill="#8adf77"/>
<circle cx="364.26" cy="216.21" r="2.1" fill="#d6c56d"/>
<circle cx="364.26" cy="216.21" r="1.6" fill="#8adf77"/>
<circle cx="364.26" cy="210.64" r="2.1" fill="#d6c56d"/>
<circle cx="364.26" cy="205.48" r="1.6" fill="#8adf77"/>
<circle cx="364.26" cy="205.48" r="2.1" fill="#d6c56d"/>
<circle cx="364.26" cy="205.48" r="1.6" fill="#8adf77"/>
<circle cx="364.26" cy="200.07" r="2.1" fill="#d6c56d"/>
<circle cx="364.26" cy="194.61" r="1.6" fill="#8adf77"/>
<circle cx="364.26" cy="194.61" r="2.1" fill="#d6c56d"/>
<circle cx="364.26" cy="189.20" r="1.6" fill="#8adf77"/>
<circle cx="364.26" cy="183.76" r="2.1" fill="#d6c56d"/>
<circle cx="364.26" cy="183.76" r="1.6" fill="#8adf77"/>
<circle cx="364.26" cy="183.76" r="2.1" fill="#d6c56d"/>
<circle cx="367.39" cy="173.20" r="1.6" fill="#8adf77"/>
<circle cx="364.26" cy="183.76" r="1.6" fill="#8adf77"/>
<circle cx="364.26" cy="183.76" r="2.1" fill="#d6c56d"/>
<circle cx="367.35" cy="173.53" r="1.6" fill="#8adf77"/>
<circle cx="368.84" cy="168.63" r="1.6" fill="#8adf77"/>
<circle cx="370.34" cy="163.69" r="2.1" fill="#d6c56d"/>
<circle cx="370.34" cy="163.69" r="1.6" fill="#8adf77"/>
<circle cx="371.87" cy="158.62" r="1.6" fill="#8adf77"/>
<circle cx="373.48" cy="153.32" r="2.1" fill="#d6c56d"/>
<circle cx="373.48" cy="153.32" r="1.6" fill="#8adf77"/>
<circle cx="375.05" cy="148.12" r="2.1" fill="#d6c56d"/>
<circle cx="376.54" cy="143.20" r="1.6" fill="#8adf77"/>
<circle cx="376.54" cy="143.20" r="2.1" fill="#d6c56d"/>
<circle cx="376.54" cy="143.20" r="1.6" fill="#8adf77"/>
<circle cx="362.14" cy="178.54" r="1.6" fill="#8adf77"/>
<circle cx="360.16" cy="173.64" r="2.1" fill="#d6c56d"/>
<circle cx="360.16" cy="173.64" r="1.6" fill="#8adf77"/>
<circle cx="358.16" cy="168.68" r="2.1" fill="#d6c56d"/>
<circle cx="356.13" cy="163.67" r="1.6" fill="#8adf77"/>
<circle cx="356.13" cy="163.67" r="2.1" fill="#d6c56d"/>
<circle cx="356.13" cy="163.67" r="1.6" fill="#8adf77"/>
<circle cx="354.18" cy="158.84" r="2.1" fill="#d6c56d"/>
<circle cx="352.21" cy="153.98" r="1.6" fill="#8adf77"/>
<circle cx="352.21" cy="153.98" r="2.1" fill="#d6c56d"/>
<circle cx="350.19" cy="148.98" r="1.6" fill="#8adf77"/>
<circle cx="348.18" cy="144.01" r="2.1" fill="#d6c56d"/>
<circle cx="348.18" cy="144.01" r="1.6" fill="#8adf77"/>
<circle cx="348.18" cy="144.01" r="2.1" fill="#d6c56d"/>
<circle cx="349.57" cy="132.98" r="1.6" fill="#8adf77"/>
<circle cx="348.18" cy="144.01" r="1.6" fill="#8adf77"/>
<circle cx="346.19" cy="139.08" r="2.1" fill="#d6c56d"/>
<circle cx="344.18" cy="134.11" r="1.6" fill="#8adf77"/>
<circle cx="344.18" cy="134.11" r="2.1" fill="#d6c56d"/>
<circle cx="342.11" cy="129.00" r="1.6" fill="#8adf77"/>
<circle cx="340.04" cy="123.88" r="2.1" fill="#d6c56d"/>
<circle cx="340.04" cy="123.88" r="1.6" fill="#8adf77"/>
<circle cx="340.04" cy="123.88" r="2.1" fill="#d6c56d"/>
<circle cx="340.21" cy="113.42" r="1.6" fill="#8adf77"/>
<circle cx="338.05" cy="118.96" r="1.6" fill="#8adf77"/>
<circle cx="336.04" cy="113.99" r="2.1" fill="#d6c56d"/>
<circle cx="336.04" cy="113.99" r="1.6" fill="#8adf77"/>
<circle cx="334.09" cy="109.15" r="2.1" fill="#d6c56d"/>
<circle cx="332.04" cy="104.10" r="1.6" fill="#8adf77"/>
<circle cx="332.04" cy="104.10" r="2.1" fill="#d6c56d"/>
<circle cx="332.04" cy="104.10" r="1.6" fill="#8adf77"/>
<circle cx="332.04" cy="104.10" r="2.1" fill="#d6c56d"/>
<circle cx="333.52" cy="93.24" r="1.6" fill="#8adf77"/>
<circle cx="334.26" cy="87.84" r="1.6" fill="#8adf77"/>
<circle cx="334.96" cy="82.72" r="2.1" fill="#d6c56d"/>
<circle cx="334.96" cy="82.72" r="1.6" fill="#8adf77"/>
<circle cx="332.04" cy="104.10" r="1.6" fill="#8adf77"/>
<circle cx="364.26" cy="183.76" r="1.6" fill="#8adf77"/>
<circle cx="364.26" cy="178.68" r="2.1" fill="#d6c56d"/>
<circle cx="364.26" cy="173.02" r="1.6" fill="#8adf77"/>
<circle cx="364.26" cy="173.02" r="2.1" fill="#d6c56d"/>
<circle cx="364.26" cy="167.85" r="1.6" fill="#8adf77"/>
<circle cx="364.26" cy="162.19" r="2.1" fill="#d6c56d"/>
<circle cx="364.26" cy="162.19" r="1.6" fill="#8adf77"/>
<circle cx="364.26" cy="162.19" r="2.1" fill="#d6c56d"/>
<circle cx="367.44" cy="151.22" r="1.6" fill="#8adf77"/>
<circle cx="364.26" cy="156.56" r="1.6" fill="#8adf77"/>
<circle cx="364.26" cy="151.20" r="2.1" fill="#d6c56d"/>
<circle cx="364.26" cy="151.20" r="1.6" fill="#8adf77"/>
<circle cx="364.26" cy="145.45" r="2.1" fill="#d6c56d"/>
<circle cx="364.26" cy="140.00" r="1.6" fill="#8adf77"/>
<circle cx="364.26" cy="140.00" r="2.1" fill="#d6c56d"/>
<circle cx="364.26" cy="140.00" r="1.6" fill="#8adf77"/>
<circle cx="364.26" cy="140.00" r="2.1" fill="#d6c56d"/>
<circle cx="367.24" cy="129.96" r="1.6" fill="#8adf77"/>
<circle cx="368.70" cy="125.06" r="1.6" fill="#8adf77"/>
<circle cx="370.19" cy="120.06" r="2.1" fill="#d6c56d"/>
<circle cx="370.19" cy="120.06" r="1.6" fill="#8adf77"/>
<circle cx="364.26" cy="134.72" r="1.6" fill="#8adf77"/>
<circle cx="364.26" cy="129.44" r="2.1" fill="#d6c56d"/>
<circle cx="364.26" cy="129.44" r="1.6" fill="#8adf77"/>
<circle cx="364.26" cy="124.10" r="2.1" fill="#d6c56d"/>
<circle cx="364.26" cy="118.78" r="1.6" fill="#8adf77"/>
<circle cx="364.26" cy="118.78" r="2.1" fill="#d6c56d"/>
<circle cx="364.26" cy="118.78" r="1.6" fill="#8adf77"/>
<circle cx="364.26" cy="113.27" r="2.1" fill="#d6c56d"/>
<circle cx="364.26" cy="108.14" r="1.6" fill="#8adf77"/>
<circle cx="364.26" cy="108.14" r="2.1" fill="#d6c56d"/>
<circle cx="364.26" cy="102.91" r="1.6" fill="#8adf77"/>
<circle cx="364.26" cy="97.51" r="2.1" fill="#d6c56d"/>
<circle cx="364.26" cy="97.51" r="1.6" fill="#8adf77"/>
<circle cx="364.26" cy="97.51" r="2.1" fill="#d6c56d"/>
<circle cx="369.62" cy="88.17" r="1.6" fill="#8adf77"/>
<circle cx="364.26" cy="97.51" r="1.6" fill="#8adf77"/>
<circle cx="364.26" cy="97.51" r="2.1" fill="#d6c56d"/>
<circle cx="368.57" cy="87.64" r="1.6" fill="#8adf77"/>
<circle cx="370.81" cy="82.51" r="1.6" fill="#8adf77"/>
<circle cx="372.99" cy="77.51" r="2.1" fill="#d6c56d"/>
<circle cx="372.99" cy="77.51" r="1.6" fill="#8adf77"/>
<circle cx="375.24" cy="72.38" r="1.6" fill="#8adf77"/>
<circle cx="377.44" cy="67.35" r="2.1" fill="#d6c56d"/>
<circle cx="377.44" cy="67.35" r="1.6" fill="#8adf77"/>
<circle cx="379.57" cy="62.47" r="2.1" fill="#d6c56d"/>
<circle cx="381.82" cy="57.32" r="1.6" fill="#8adf77"/>
<circle cx="381.82" cy="57.32" r="2.1" fill="#d6c56d"/>
<circle cx="381.82" cy="57.32" r="1.6" fill="#8adf77"/>
<text x="652" y="32" fill="#d6c56d" font-family="monospace" font-size="11">AC_003</text>
<path d="M677.1,270.0L677.1,264.4M677.1,264.4L677.1,258.1M677.1,258.1L679.0,252.1M677.1,258.1L677.1,252.6M677.1,252.6L677.1,246.4M677.1,246.4L678.5,240.3M678.5,240.3L679.8,234.6M677.1,246.4L677.1,240.8M677.1,240.8L677.1,235.2M677.1,235.2L677.1,229.4M677.1,229.4L677.1,223.5M677.1,223.5L678.4,217.2M678.4,217.2L679.6,211.3M679.6,211.3L680.8,205.5M680.8,205.5L682.0,199.3M682.0,199.3L684.0,194.0M677.1,223.5L677.1,217.3M677.1,217.3L677.1,211.2M677.1,211.2L677.1,205.5M677.1,205.5L677.1,199.5M677.1,199.5L677.1,193.2M677.1,193.2L677.1,187.6M677.1,187.6L677.1,181.7M677.1,181.7L677.1,176.1M677.1,176.1L678.4,170.5M677.1,176.1L678.1,169.8M678.1,169.8L679.1,163.8M679.1,163.8L680.0,157.9M680.0,157.9L681.0,152.0M681.0,152.0L683.2,146.2M681.0,152.0L681.9,145.9M681.9,145.9L682.9,139.7M682.9,139.7L684.8,133.7M682.9,139.7L683.9,133.8M683.9,133.8L684.8,127.7M684.8,127.7L687.4,122.2M687.4,122.2L689.7,117.0M677.1,176.1L675.4,170.0M675.4,170.0L673.7,164.0M673.7,164.0L672.3,158.6M672.3,158.6L670.7,153.1M670.7,153.1L669.1,147.1M669.1,147.1L667.5,141.3M667.5,141.3L665.9,135.8M665.9,135.8L664.4,130.1M664.4,130.1L664.2,124.4M664.4,130.1L662.8,124.5M662.8,124.5L661.2,118.9M661.2,118.9L659.7,113.1M659.7,113.1L658.2,107.8M658.2,107.8L658.4,101.6M658.2,107.8L656.7,102.5M656.7,102.5L655.0,96.5M655.0,96.5L655.3,90.4M655.0,96.5L653.6,91.2M653.6,91.2L652.0,85.5M652.0,85.5L652.1,79.7M652.1,79.7L652.2,74.0M677.1,176.1L677.1,170.2M677.1,170.2L677.1,164.0M677.1,164.0L677.1,158.4M677.1,158.4L677.1,152.3M677.1,152.3L677.9,146.4M677.1,152.3L677.1,146.2M677.1,146.2L677.1,140.3M677.1,140.3L678.7,134.0M677.1,140.3L677.1,134.6M677.1,134.6L677.1,128.8M677.1,128.8L678.9,122.8M678.9,122.8L680.7,116.8M677.1,128.8L677.1,123.2M677.1,123.2L677.1,117.4M677.1,117.4L678.4,112.0M677.1,117.4L677.1,111.1M677.1,111.1L677.1,105.4M677.1,105.4L678.0,99.9M678.0,99.9L679.0,93.5M677.1,105.4L677.1,99.8M677.1,99.8L677.1,93.6M677.1,93.6L677.1,88.0M677.1,88.0L677.1,81.9M677.1,81.9L679.0,75.7M679.0,75.7L680.8,70.0M680.8,70.0L682.4,64.7M682.4,64.7L684.3,58.7M684.3,58.7L687.4,54.0" fill="none" stroke="#9fd8c8" stroke-width="0.7" stroke-linecap="round"/>
<circle cx="677.12" cy="258.13" r="1.6" fill="#8adf77"/>
<circle cx="677.12" cy="246.37" r="2.1" fill="#d6c56d"/>
<circle cx="677.12" cy="246.37" r="1.6" fill="#8adf77"/>
<circle cx="677.12" cy="235.17" r="2.1" fill="#d6c56d"/>
<circle cx="677.12" cy="223.50" r="2.1" fill="#d6c56d"/>
<circle cx="677.12" cy="223.50" r="1.6" fill="#8adf77"/>
<circle cx="682.02" cy="199.30" r="1.6" fill="#8adf77"/>
<circle cx="677.12" cy="211.17" r="2.1" fill="#d6c56d"/>
<circle cx="677.12" cy="199.52" r="2.1" fill="#d6c56d"/>
<circle cx="677.12" cy="176.12" r="1.6" fill="#8adf77"/>
<circle cx="677.12" cy="176.12" r="2.1" fill="#d6c56d"/>
<circle cx="677.12" cy="176.12" r="1.6" fill="#8adf77"/>
<circle cx="680.97" cy="151.98" r="1.6" fill="#8adf77"/>
<circle cx="682.94" cy="139.65" r="1.6" fill="#8adf77"/>
<circle cx="684.84" cy="127.74" r="2.1" fill="#d6c56d"/>
<circle cx="684.84" cy="127.74" r="1.6" fill="#8adf77"/>
<circle cx="673.74" cy="163.95" r="2.1" fill="#d6c56d"/>
<circle cx="670.74" cy="153.11" r="2.1" fill="#d6c56d"/>
<circle cx="664.36" cy="130.10" r="1.6" fill="#8adf77"/>
<circle cx="664.36" cy="130.10" r="2.1" fill="#d6c56d"/>
<circle cx="658.18" cy="107.82" r="1.6" fill="#8adf77"/>
<circle cx="655.03" cy="96.47" r="1.6" fill="#8adf77"/>
<circle cx="652.00" cy="85.53" r="2.1" fill="#d6c56d"/>
<circle cx="652.00" cy="85.53" r="1.6" fill="#8adf77"/>
<circle cx="652.00" cy="85.53" r="2.1" fill="#d6c56d"/>
<circle cx="677.12" cy="176.12" r="2.1" fill="#d6c56d"/>
<circle cx="677.12" cy="152.26" r="1.6" fill="#8adf77"/>
<circle cx="677.12" cy="140.27" r="1.6" fill="#8adf77"/>
<circle cx="677.12" cy="128.76" r="2.1" fill="#d6c56d"/>
<circle cx="677.12" cy="128.76" r="1.6" fill="#8adf77"/>
<circle cx="677.12" cy="117.36" r="1.6" fill="#8adf77"/>
<circle cx="677.12" cy="105.37" r="2.1" fill="#d6c56d"/>
<circle cx="677.12" cy="105.37" r="1.6" fill="#8adf77"/>
<circle cx="677.12" cy="93.65" r="2.1" fill="#d6c56d"/>
<circle cx="677.12" cy="81.87" r="2.1" fill="#d6c56d"/>
<circle cx="677.12" cy="81.87" r="1.6" fill="#8adf77"/>
<circle cx="684.30" cy="58.71" r="1.6" fill="#8adf77"/>
<text x="972" y="32" fill="#d6c56d" font-family="monospace" font-size="11">AC_004</text>
<path d="M1014.9,270.0L1014.9,263.5M1014.9,263.5L1014.9,257.5M1014.9,257.5L1018.2,252.8M1014.9,257.5L1014.9,251.4M1014.9,251.4L1014.9,245.5M1014.9,245.5L1017.1,240.2M1017.1,240.2L1019.5,234.2M1014.9,245.5L1014.9,239.2M1014.9,239.2L1014.9,233.1M1014.9,233.1L1014.9,227.5M1014.9,227.5L1014.9,221.1M1014.9,221.1L1018.0,215.9M1014.9,221.1L1018.5,216.0M1018.5,216.0L1021.9,211.2M1021.9,211.2L1025.2,206.5M1025.2,206.5L1028.5,201.7M1028.5,201.7L1033.7,199.1M1014.9,221.1L1014.9,214.9M1014.9,214.9L1014.9,208.6M1014.9,208.6L1014.9,202.5M1014.9,202.5L1014.9,196.0M1014.9,196.0L1017.9,191.2M1014.9,196.0L1014.9,190.0M1014.9,190.0L1014.9,183.5M1014.9,183.5L1018.1,178.1M1014.9,183.5L1014.9,177.5M1014.9,177.5L1014.9,171.1M1014.9,171.1L1017.5,165.4M1017.5,165.4L1020.1,160.0M1014.9,171.1L1018.1,165.7M1018.1,165.7L1020.9,160.8M1020.9,160.8L1023.8,155.9M1023.8,155.9L1026.8,150.9M1026.8,150.9L1032.6,148.0M1026.8,150.9L1029.8,145.8M1029.8,145.8L1032.6,140.8M1032.6,140.8L1037.9,138.3M1032.6,140.8L1035.7,135.6M1035.7,135.6L1038.6,130.7M1038.6,130.7L1043.9,128.1M1043.9,128.1L1049.4,125.3M1014.9,171.1L1012.3,165.7M1012.3,165.7L1009.5,159.8M1009.5,159.8L1006.8,154.3M1006.8,154.3L1004.0,148.6M1004.0,148.6L1004.7,142.9M1004.0,148.6L1001.6,143.5M1001.6,143.5L998.8,137.8M998.8,137.8L998.5,131.5M998.8,137.8L996.2,132.5M996.2,132.5L993.4,126.7M993.4,126.7L993.4,120.6M993.4,120.6L993.5,114.9M993.4,126.7L990.7,121.1M990.7,121.1L987.9,115.4M987.9,115.4L988.2,109.6M987.9,115.4L985.4,110.1M985.4,110.1L982.8,104.7M982.8,104.7L982.6,99.0M982.6,99.0L982.3,93.2M982.8,104.7L980.1,99.2M980.1,99.2L977.3,93.4M977.3,93.4L974.7,88.1M974.7,88.1L972.0,82.5M972.0,82.5L972.2,76.4M972.0,82.5L972.6,76.8M972.6,76.8L973.2,70.9M973.2,70.9L973.8,65.0M973.8,65.0L974.5,58.5M974.5,58.5L978.5,54.0M1014.9,171.1L1018.6,165.9M1018.6,165.9L1021.9,161.1M1021.9,161.1L1025.2,156.4M1025.2,156.4L1028.7,151.5M1028.7,151.5L1034.8,149.4M1028.7,151.5L1032.1,146.6M1032.1,146.6L1035.8,141.4M1035.8,141.4L1041.3,138.0M1035.8,141.4L1039.0,136.9M1039.0,136.9L1042.5,131.9M1042.5,131.9L1047.7,129.7M1047.7,129.7L1053.0,127.6M1042.5,131.9L1045.7,127.3M1045.7,127.3L1049.2,122.3M1049.2,122.3L1054.1,119.3M1049.2,122.3L1052.4,117.8M1052.4,117.8L1055.9,112.8M1055.9,112.8L1061.1,110.0M1061.1,110.0L1066.8,107.0M1055.9,112.8L1059.3,108.0M1059.3,108.0L1062.8,103.0M1062.8,103.0L1066.3,98.0M1066.3,98.0L1069.8,93.1M1069.8,93.1L1075.9,90.7M1069.8,93.1L1075.3,90.2M1075.3,90.2L1080.3,87.5M1080.3,87.5L1085.7,84.6M1085.7,84.6L1091.1,81.8M1091.1,81.8L1096.9,82.2" fill="none" stroke="#9fd8c8" stroke-width="0.7" stroke-linecap="round"/>
<circle cx="1014.92" cy="257.51" r="1.6" fill="#8adf77"/>
<circle cx="1014.92" cy="245.48" r="2.1" fill="#d6c56d"/>
<circle cx="1014.92" cy="245.48" r="1.6" fill="#8adf77"/>
<circle cx="1014.92" cy="233.07" r="2.1" fill="#d6c56d"/>
<circle cx="1014.92" cy="221.12" r="1.6" fill="#8adf77"/>
<circle cx="1014.92" cy="221.12" r="2.1" fill="#d6c56d"/>
<circle cx="1014.92" cy="221.12" r="1.6" fill="#8adf77"/>
<circle cx="1028.53" cy="201.71" r="1.6" fill="#8adf77"/>
<circle cx="1014.92" cy="208.61" r="2.1" fill="#d6c56d"/>
<circle cx="1014.92" cy="195.97" r="1.6" fill="#8adf77"/>
<circle cx="1014.92" cy="195.97" r="2.1" fill="#d6c56d"/>
<circle cx="1014.92" cy="183.50" r="1.6" fill="#8adf77"/>
<circle cx="1014.92" cy="171.10" r="2.1" fill="#d6c56d"/>
<circle cx="1014.92" cy="171.10" r="1.6" fill="#8adf77"/>
<circle cx="1014.92" cy="171.10" r="2.1" fill="#d6c56d"/>
<circle cx="1014.92" cy="171.10" r="1.6" fill="#8adf77"/>
<circle cx="1026.77" cy="150.87" r="1.6" fill="#8adf77"/>
<circle cx="1032.65" cy="140.83" r="1.6" fill="#8adf77"/>
<circle cx="1038.61" cy="130.66" r="2.1" fill="#d6c56d"/>
<circle cx="1038.61" cy="130.66" r="1.6" fill="#8adf77"/>
<circle cx="1009.47" cy="159.85" r="2.1" fill="#d6c56d"/>
<circle cx="1004.01" cy="148.58" r="1.6" fill="#8adf77"/>
<circle cx="1004.01" cy="148.58" r="2.1" fill="#d6c56d"/>
<circle cx="998.78" cy="137.79" r="1.6" fill="#8adf77"/>
<circle cx="993.40" cy="126.67" r="2.1" fill="#d6c56d"/>
<circle cx="993.40" cy="126.67" r="1.6" fill="#8adf77"/>
<circle cx="993.40" cy="126.67" r="2.1" fill="#d6c56d"/>
<circle cx="987.92" cy="115.36" r="1.6" fill="#8adf77"/>
<circle cx="982.76" cy="104.71" r="2.1" fill="#d6c56d"/>
<circle cx="982.76" cy="104.71" r="1.6" fill="#8adf77"/>
<circle cx="977.29" cy="93.41" r="2.1" fill="#d6c56d"/>
<circle cx="972.00" cy="82.50" r="1.6" fill="#8adf77"/>
<circle cx="972.00" cy="82.50" r="2.1" fill="#d6c56d"/>
<circle cx="972.00" cy="82.50" r="1.6" fill="#8adf77"/>
<circle cx="974.53" cy="58.54" r="1.6" fill="#8adf77"/>
<circle cx="972.00" cy="82.50" r="2.1" fill="#d6c56d"/>
<circle cx="1021.95" cy="161.10" r="2.1" fill="#d6c56d"/>
<circle cx="1028.74" cy="151.45" r="1.6" fill="#8adf77"/>
<circle cx="1028.74" cy="151.45" r="2.1" fill="#d6c56d"/>
<circle cx="1035.78" cy="141.44" r="1.6" fill="#8adf77"/>
<circle cx="1042.50" cy="131.89" r="2.1" fill="#d6c56d"/>
<circle cx="1042.50" cy="131.89" r="1.6" fill="#8adf77"/>
<circle cx="1042.50" cy="131.89" r="2.1" fill="#d6c56d"/>
<circle cx="1049.21" cy="122.34" r="1.6" fill="#8adf77"/>
<circle cx="1055.90" cy="112.84" r="2.1" fill="#d6c56d"/>
<circle cx="1055.90" cy="112.84" r="1.6" fill="#8adf77"/>
<circle cx="1062.84" cy="102.97" r="2.1" fill="#d6c56d"/>
<circle cx="1069.81" cy="93.06" r="1.6" fill="#8adf77"/>
<circle cx="1069.81" cy="93.06" r="2.1" fill="#d6c56d"/>
<circle cx="1069.81" cy="93.06" r="1.6" fill="#8adf77"/>
<circle cx="1091.07" cy="81.80" r="1.6" fill="#8adf77"/>
<circle cx="1069.81" cy="93.06" r="2.1" fill="#d6c56d"/>
<circle cx="1014.92" cy="171.10" r="2.1" fill="#d6c56d"/>
<text x="1292" y="32" fill="#d6c56d" font-family="monospace" font-size="11">AC_005</text>
<path d="M1333.8,270.0L1333.8,263.8M1333.8,263.8L1333.8,257.5M1333.8,257.5L1330.7,252.7M1333.8,257.5L1333.8,251.7M1333.8,251.7L1333.8,245.2M1333.8,245.2L1330.2,240.6M1330.2,240.6L1326.3,235.6M1333.8,245.2L1333.8,239.5M1333.8,239.5L1333.8,233.6M1333.8,233.6L1333.8,227.5M1333.8,227.5L1333.8,221.2M1333.8,221.2L1330.8,215.5M1333.8,221.2L1330.3,216.7M1330.3,216.7L1326.7,211.9M1326.7,211.9L1323.1,207.2M1323.1,207.2L1319.7,202.7M1319.7,202.7L1314.6,200.1M1333.8,221.2L1333.8,215.2M1333.8,215.2L1333.8,209.0M1333.8,209.0L1333.8,202.5M1333.8,202.5L1333.8,196.4M1333.8,196.4L1330.2,191.0M1333.8,196.4L1333.8,190.7M1333.8,190.7L1333.8,184.2M1333.8,184.2L1330.8,179.3M1333.8,184.2L1333.8,178.1M1333.8,178.1L1333.8,172.0M1333.8,172.0L1330.0,167.4M1330.0,167.4L1325.8,162.3M1333.8,172.0L1330.0,167.3M1330.0,167.3L1326.0,162.2M1326.0,162.2L1322.2,157.4M1322.2,157.4L1318.6,152.9M1318.6,152.9L1312.3,151.7M1318.6,152.9L1315.0,148.3M1315.0,148.3L1311.2,143.5M1311.2,143.5L1305.4,141.5M1311.2,143.5L1307.4,138.8M1307.4,138.8L1303.4,133.7M1303.4,133.7L1297.5,132.5M1297.5,132.5L1292.0,131.4M1333.8,172.0L1336.7,166.3M1336.7,166.3L1339.5,160.7M1339.5,160.7L1342.4,154.9M1342.4,154.9L1345.1,149.7M1345.1,149.7L1344.5,143.1M1345.1,149.7L1347.7,144.5M1347.7,144.5L1350.4,139.2M1350.4,139.2L1348.9,133.7M1350.4,139.2L1353.3,133.6M1353.3,133.6L1355.9,128.3M1355.9,128.3L1355.1,122.3M1355.1,122.3L1354.4,116.5M1355.9,128.3L1358.6,123.1M1358.6,123.1L1361.5,117.3M1361.5,117.3L1360.2,110.8M1361.5,117.3L1364.4,111.6M1364.4,111.6L1366.9,106.5M1366.9,106.5L1366.1,100.1M1366.1,100.1L1365.4,94.5M1366.9,106.5L1369.7,101.2M1369.7,101.2L1372.6,95.4M1372.6,95.4L1375.4,89.9M1375.4,89.9L1378.4,84.0M1378.4,84.0L1377.1,78.0M1378.4,84.0L1378.6,77.8M1378.6,77.8L1378.9,71.6M1378.9,71.6L1379.2,65.9M1379.2,65.9L1379.4,59.5M1379.4,59.5L1377.1,54.0" fill="none" stroke="#9fd8c8" stroke-width="0.7" stroke-linecap="round"/>
<circle cx="1333.76" cy="257.45" r="1.6" fill="#8adf77"/>
<circle cx="1333.76" cy="245.22" r="2.1" fill="#d6c56d"/>
<circle cx="1333.76" cy="245.22" r="1.6" fill="#8adf77"/>
<circle cx="1333.76" cy="233.62" r="2.1" fill="#d6c56d"/>
<circle cx="1333.76" cy="221.20" r="1.6" fill="#8adf77"/>
<circle cx="1333.76" cy="221.20" r="2.1" fill="#d6c56d"/>
<circle cx="1333.76" cy="221.20" r="1.6" fill="#8adf77"/>
<circle cx="1319.71" cy="202.71" r="1.6" fill="#8adf77"/>
<circle cx="1333.76" cy="208.98" r="2.1" fill="#d6c56d"/>
<circle cx="1333.76" cy="196.42" r="1.6" fill="#8adf77"/>
<circle cx="1333.76" cy="196.42" r="2.1" fill="#d6c56d"/>
<circle cx="1333.76" cy="184.21" r="1.6" fill="#8adf77"/>
<circle cx="1333.76" cy="172.02" r="2.1" fill="#d6c56d"/>
<circle cx="1333.76" cy="172.02" r="1.6" fill="#8adf77"/>
<circle cx="1333.76" cy="172.02" r="2.1" fill="#d6c56d"/>
<circle cx="1333.76" cy="172.02" r="1.6" fill="#8adf77"/>
<circle cx="1318.60" cy="152.91" r="1.6" fill="#8adf77"/>
<circle cx="1311.16" cy="143.52" r="1.6" fill="#8adf77"/>
<circle cx="1303.36" cy="133.69" r="2.1" fill="#d6c56d"/>
<circle cx="1303.36" cy="133.69" r="1.6" fill="#8adf77"/>
<circle cx="1339.50" cy="160.70" r="2.1" fill="#d6c56d"/>
<circle cx="1345.10" cy="149.65" r="1.6" fill="#8adf77"/>
<circle cx="1345.10" cy="149.65" r="2.1" fill="#d6c56d"/>
<circle cx="1350.42" cy="139.16" r="1.6" fill="#8adf77"/>
<circle cx="1355.94" cy="128.27" r="2.1" fill="#d6c56d"/>
<circle cx="1355.94" cy="128.27" r="1.6" fill="#8adf77"/>
<circle cx="1355.94" cy="128.27" r="2.1" fill="#d6c56d"/>
<circle cx="1361.52" cy="117.26" r="1.6" fill="#8adf77"/>
<circle cx="1366.95" cy="106.54" r="2.1" fill="#d6c56d"/>
<circle cx="1366.95" cy="106.54" r="1.6" fill="#8adf77"/>
<circle cx="1372.59" cy="95.40" r="2.1" fill="#d6c56d"/>
<circle cx="1378.38" cy="83.99" r="1.6" fill="#8adf77"/>
<circle cx="1378.38" cy="83.99" r="2.1" fill="#d6c56d"/>
<circle cx="1378.38" cy="83.99" r="1.6" fill="#8adf77"/>
<circle cx="1379.42" cy="59.52" r="1.6" fill="#8adf77"/>
<circle cx="1378.38" cy="83.99" r="2.1" fill="#d6c56d"/>
<circle cx="1333.76" cy="172.02" r="1.6" fill="#8adf77"/>
<circle cx="1333.76" cy="172.02" r="2.1" fill="#d6c56d"/>
<text x="12" y="292" fill="#d6c56d" font-family="monospace" font-size="11">AC_006</text>
<path d="M31.8,530.0L31.8,529.0M31.8,529.0L31.8,527.9M31.8,527.9L31.8,526.9M31.8,526.9L32.0,525.9M31.8,526.9L31.8,525.8M31.8,525.8L31.8,524.7M31.8,524.7L31.8,523.7M31.8,523.7L31.8,522.5M31.8,522.5L31.8,521.5M31.8,521.5L32.0,520.5M31.8,521.5L32.1,520.5M31.8,521.5L31.8,520.5M31.8,520.5L31.8,519.4M31.8,519.4L31.8,518.4M31.8,518.4L31.8,517.4M31.8,517.4L31.8,516.4M31.8,516.4L31.8,515.4M31.8,515.4L31.8,514.3M31.8,514.3L32.0,513.2M31.8,514.3L31.8,513.1M31.8,513.1L31.8,512.0M31.8,512.0L31.8,510.9M31.8,510.9L31.8,509.9M31.8,509.9L31.8,508.7M31.8,508.7L32.1,507.6M31.8,508.7L32.0,507.7M31.8,508.7L32.0,507.7M31.8,508.7L31.8,507.6M31.8,507.6L31.8,506.5M31.8,506.5L31.8,505.4M31.8,505.4L31.8,504.3M31.8,504.3L31.8,503.2M31.8,503.2L31.8,502.1M31.8,502.1L31.8,501.0M31.8,501.0L31.8,499.8M31.8,499.8L31.8,498.8M31.8,498.8L32.1,497.7M31.8,498.8L31.8,497.7M31.8,497.7L31.8,496.6M31.8,496.6L31.8,495.5M31.8,495.5L32.1,494.5M31.8,495.5L31.8,494.4M31.8,494.4L31.8,493.3M31.8,493.3L31.8,492.1M31.8,492.1L31.8,491.1M31.8,491.1L31.8,490.0M31.8,490.0L32.1,488.9M31.8,490.0L32.1,489.0M31.8,490.0L31.8,489.0M31.8,489.0L31.8,487.9M31.8,487.9L31.8,486.9M31.8,486.9L31.8,485.8M31.8,485.8L31.8,484.7M31.8,484.7L31.8,483.6M31.8,483.6L31.8,482.5M31.8,482.5L32.2,481.6M31.8,482.5L31.8,481.5M31.8,481.5L31.8,480.5M31.8,480.5L31.8,479.5M31.8,479.5L31.8,478.3M31.8,478.3L31.8,477.3M31.8,477.3L32.1,476.2M31.8,477.3L32.1,476.3M31.8,477.3L32.1,476.2M31.8,477.3L32.0,476.3M31.8,477.3L31.8,476.3M31.8,476.3L31.8,475.1M31.8,475.1L31.8,474.1M31.8,474.1L31.8,473.1M31.8,473.1L31.8,472.0M31.8,472.0L31.8,471.0M31.8,471.0L31.8,469.9M31.8,469.9L31.8,468.8M31.8,468.8L31.8,467.8M31.8,467.8L32.1,466.8M31.8,467.8L31.8,466.9M31.8,466.9L31.8,465.8M31.8,465.8L31.8,464.7M31.8,464.7L31.8,463.6M31.8,463.6L31.8,462.4M31.8,462.4L32.1,461.4M31.8,462.4L31.8,461.4M31.8,461.4L31.8,460.3M31.8,460.3L31.8,459.2M31.8,459.2L32.1,458.3M31.8,459.2L31.8,458.2M31.8,458.2L31.8,457.1M31.8,457.1L31.8,456.0M31.8,456.0L31.8,455.0M31.8,455.0L31.8,454.0M31.8,454.0L32.1,452.9M31.8,454.0L32.1,452.9M31.8,454.0L31.8,452.8M31.8,452.8L31.8,451.7M31.8,451.7L31.8,450.6M31.8,450.6L32.1,449.6M31.8,450.6L31.8,449.5M31.8,449.5L31.8,448.4M31.8,448.4L31.8,447.3M31.8,447.3L31.8,446.2M31.8,446.2L31.8,445.2M31.8,445.2L32.1,444.1M31.8,445.2L32.1,444.1M31.8,445.2L31.8,444.1M31.8,444.1L31.8,443.2M31.8,443.2L31.8,442.2M31.8,442.2L31.8,441.1M31.8,441.1L31.8,440.1M31.8,440.1L31.8,438.9M31.8,438.9L31.8,437.9M31.8,437.9L32.0,436.9M31.8,437.9L31.8,436.9M31.8,436.9L31.8,435.8M31.8,435.8L31.8,434.7M31.8,434.7L31.8,433.7M31.8,433.7L31.8,432.6M31.8,432.6L32.1,431.6M31.8,432.6L32.1,431.6M31.8,432.6L32.1,431.5M31.8,432.6L31.8,431.5M31.8,431.5L31.8,430.4M31.8,430.4L31.8,429.3M31.8,429.3L31.8,428.3M31.8,428.3L31.8,427.2M31.8,427.2L31.8,426.1M31.8,426.1L31.8,425.1M31.8,425.1L31.8,424.1M31.8,424.1L31.8,423.0M31.8,423.0L32.2,422.0M31.8,423.0L31.8,422.0M31.8,422.0L31.8,420.9M31.8,420.9L31.8,419.8M31.8,419.8L32.1,418.9M31.8,419.8L31.8,418.8M31.8,418.8L31.8,417.7M31.8,417.7L31.8,416.6M31.8,416.6L31.8,415.5M31.8,415.5L31.8,414.5M31.8,414.5L32.0,413.4M31.8,414.5L32.2,413.5M31.8,414.5L31.8,413.5M31.8,413.5L31.8,412.3M31.8,412.3L31.8,411.3M31.8,411.3L31.8,410.2M31.8,410.2L31.8,409.1M31.8,409.1L31.8,408.0M31.8,408.0L31.8,406.9M31.8,406.9L32.1,405.9M31.8,406.9L31.8,405.8M31.8,405.8L31.8,404.7M31.8,404.7L31.8,403.6M31.8,403.6L31.8,402.6M31.8,402.6L31.8,401.6M31.8,401.6L32.1,400.6M31.8,401.6L32.1,400.5M31.8,401.6L32.1,400.5M31.8,401.6L32.1,400.5M31.8,401.6L32.0,400.5M31.8,401.6L31.4,400.5M31.4,400.5L31.1,399.5M31.1,399.5L30.7,398.6M30.7,398.6L30.3,397.5M30.3,397.5L30.0,396.5M30.0,396.5L29.6,395.5M29.6,395.5L29.3,394.5M29.3,394.5L28.9,393.5M28.9,393.5L28.5,392.5M28.5,392.5L28.4,391.4M28.5,392.5L28.2,391.5M28.2,391.5L27.8,390.5M27.8,390.5L27.4,389.4M27.4,389.4L27.1,388.4M27.1,388.4L26.7,387.4M26.7,387.4L26.7,386.3M26.7,387.4L26.3,386.3M26.3,386.3L25.9,385.3M25.9,385.3L25.6,384.3M25.6,384.3L25.5,383.3M25.6,384.3L25.2,383.3M25.2,383.3L24.9,382.4M24.9,382.4L24.5,381.3M24.5,381.3L24.1,380.4M24.1,380.4L23.8,379.4M23.8,379.4L23.8,378.4M23.8,379.4L23.8,378.3M23.8,379.4L23.4,378.4M23.4,378.4L23.1,377.4M23.1,377.4L22.8,376.5M22.8,376.5L22.4,375.5M22.4,375.5L22.0,374.4M22.0,374.4L21.9,373.4M22.0,374.4L21.7,373.5M21.7,373.5L21.3,372.5M21.3,372.5L21.0,371.5M21.0,371.5L20.9,370.5M21.0,371.5L20.6,370.5M20.6,370.5L20.3,369.6M20.3,369.6L19.9,368.6M19.9,368.6L19.5,367.5M19.5,367.5L19.2,366.5M19.2,366.5L19.0,365.4M19.2,366.5L19.1,365.5M19.2,366.5L18.8,365.6M18.8,365.6L18.4,364.6M18.4,364.6L18.1,363.6M18.1,363.6L18.0,362.5M18.1,363.6L17.7,362.6M17.7,362.6L17.4,361.7M17.4,361.7L17.0,360.7M17.0,360.7L16.7,359.7M16.7,359.7L16.4,358.8M16.4,358.8L16.3,357.7M16.4,358.8L16.3,357.8M16.4,358.8L16.0,357.8M16.0,357.8L15.6,356.8M15.6,356.8L15.3,355.8M15.3,355.8L14.9,354.8M14.9,354.8L14.6,353.8M14.6,353.8L14.2,352.8M14.2,352.8L13.9,351.9M13.9,351.9L13.8,350.9M13.9,351.9L13.5,350.9M13.5,350.9L13.2,349.9M13.2,349.9L12.8,348.9M12.8,348.9L12.5,348.0M12.5,348.0L12.1,347.0M12.1,347.0L12.0,346.0M12.1,347.0L12.0,346.0M12.1,347.0L12.1,345.9M31.8,401.6L31.8,400.6M31.8,400.6L31.8,399.5M31.8,399.5L31.8,398.4M31.8,398.4L31.8,397.3M31.8,397.3L31.8,396.3M31.8,396.3L32.1,395.2M31.8,396.3L31.8,395.3M31.8,395.3L31.8,394.3M31.8,394.3L31.8,393.2M31.8,393.2L32.1,392.1M31.8,393.2L31.8,392.3M31.8,392.3L31.8,391.2M31.8,391.2L31.8,390.2M31.8,390.2L31.8,389.2M31.8,389.2L31.8,388.1M31.8,388.1L32.1,387.0M31.8,388.1L32.1,387.2M31.8,388.1L31.8,387.0M31.8,387.0L31.8,386.0M31.8,386.0L31.8,385.0M31.8,385.0L32.2,384.0M31.8,385.0L31.8,384.0M31.8,384.0L31.8,382.9M31.8,382.9L31.8,381.9M31.8,381.9L31.8,380.8M31.8,380.8L31.8,379.7M31.8,379.7L32.1,378.7M31.8,379.7L32.1,378.7M31.8,379.7L31.8,378.7M31.8,378.7L31.8,377.6M31.8,377.6L31.8,376.6M31.8,376.6L31.8,375.5M31.8,375.5L31.8,374.4M31.8,374.4L31.8,373.3M31.8,373.3L31.8,372.3M31.8,372.3L32.1,371.4M31.8,372.3L31.8,371.3M31.8,371.3L31.8,370.2M31.8,370.2L31.8,369.1M31.8,369.1L31.8,368.1M31.8,368.1L31.8,367.0M31.8,367.0L32.1,366.0M31.8,367.0L32.1,365.9M31.8,367.0L32.2,365.9M31.8,367.0L31.8,365.9M31.8,365.9L31.8,364.8M31.8,364.8L31.8,363.8M31.8,363.8L32.2,362.7M31.8,363.8L31.8,362.7M31.8,362.7L31.8,361.7M31.8,361.7L31.8,360.6M31.8,360.6L31.8,359.6M31.8,359.6L31.8,358.6M31.8,358.6L32.1,357.6M31.8,358.6L32.1,357.5M31.8,358.6L31.8,357.6M31.8,357.6L31.8,356.5M31.8,356.5L31.8,355.5M31.8,355.5L31.8,354.5M31.8,354.5L31.8,353.4M31.8,353.4L31.8,352.4M31.8,352.4L31.8,351.3M31.8,351.3L32.1,350.4M31.8,351.3L31.8,350.3M31.8,350.3L31.8,349.2M31.8,349.2L31.8,348.1M31.8,348.1L31.8,347.0M31.8,347.0L31.8,346.0M31.8,346.0L32.1,345.0M31.8,346.0L32.1,344.9M31.8,346.0L32.1,345.1M31.8,346.0L31.8,344.9M31.8,344.9L31.8,343.8M31.8,343.8L31.8,342.8M31.8,342.8L31.8,341.8M31.8,341.8L31.8,340.7M31.8,340.7L31.8,339.6M31.8,339.6L31.8,338.5M31.8,338.5L31.8,337.6M31.8,337.6L31.8,336.4M31.8,336.4L32.1,335.3M31.8,336.4L31.8,335.4M31.8,335.4L31.8,334.4M31.8,334.4L31.8,333.3M31.8,333.3L32.0,332.3M31.8,333.3L31.8,332.2M31.8,332.2L31.8,331.2M31.8,331.2L31.8,330.1M31.8,330.1L31.8,329.0M31.8,329.0L31.8,327.9M31.8,327.9L32.1,326.8M31.8,327.9L32.1,327.0M31.8,327.9L31.8,326.8M31.8,326.8L31.8,325.8M31.8,325.8L31.8,324.8M31.8,324.8L31.8,323.7M31.8,323.7L31.8,322.6M31.8,322.6L31.8,321.5M31.8,321.5L31.8,320.4M31.8,320.4L32.0,319.5M31.8,320.4L31.8,319.4M31.8,319.4L31.8,318.3M31.8,318.3L31.8,317.2M31.8,317.2L31.8,316.2M31.8,316.2L31.8,315.1M31.8,315.1L32.1,314.2M31.8,315.1L32.1,314.0M31.8,315.1L32.0,314.1M31.8,315.1L32.1,314.0" fill="none" stroke="#9fd8c8" stroke-width="0.7" stroke-linecap="round"/>
<circle cx="31.81" cy="527.88" r="1.6" fill="#8adf77"/>
<circle cx="31.81" cy="524.69" r="2.1" fill="#d6c56d"/>
<circle cx="31.81" cy="524.69" r="1.6" fill="#8adf77"/>
<circle cx="31.81" cy="522.55" r="1.6" fill="#8adf77"/>
<circle cx="31.81" cy="519.44" r="2.1" fill="#d6c56d"/>
<circle cx="31.81" cy="517.39" r="2.1" fill="#d6c56d"/>
<circle cx="31.81" cy="517.39" r="1.6" fill="#8adf77"/>
<circle cx="31.81" cy="515.42" r="1.6" fill="#8adf77"/>
<circle cx="31.81" cy="512.05" r="2.1" fill="#d6c56d"/>
<circle cx="31.81" cy="512.05" r="1.6" fill="#8adf77"/>
<circle cx="31.81" cy="509.87" r="1.6" fill="#8adf77"/>
<circle cx="31.81" cy="506.47" r="2.1" fill="#d6c56d"/>
<circle cx="31.81" cy="504.29" r="2.1" fill="#d6c56d"/>
<circle cx="31.81" cy="499.83" r="1.6" fill="#8adf77"/>
<circle cx="31.81" cy="498.77" r="2.1" fill="#d6c56d"/>
<circle cx="31.81" cy="498.77" r="1.6" fill="#8adf77"/>
<circle cx="31.81" cy="496.61" r="1.6" fill="#8adf77"/>
<circle cx="31.81" cy="493.26" r="2.1" fill="#d6c56d"/>
<circle cx="31.81" cy="493.26" r="1.6" fill="#8adf77"/>
<circle cx="31.81" cy="491.06" r="1.6" fill="#8adf77"/>
<circle cx="31.81" cy="487.92" r="2.1" fill="#d6c56d"/>
<circle cx="31.81" cy="485.78" r="2.1" fill="#d6c56d"/>
<circle cx="31.81" cy="485.78" r="1.6" fill="#8adf77"/>
<circle cx="31.81" cy="483.62" r="1.6" fill="#8adf77"/>
<circle cx="31.81" cy="480.45" r="2.1" fill="#d6c56d"/>
<circle cx="31.81" cy="480.45" r="1.6" fill="#8adf77"/>
<circle cx="31.81" cy="478.34" r="1.6" fill="#8adf77"/>
<circle cx="31.81" cy="475.14" r="2.1" fill="#d6c56d"/>
<circle cx="31.81" cy="473.14" r="2.1" fill="#d6c56d"/>
<circle cx="31.81" cy="468.83" r="1.6" fill="#8adf77"/>
<circle cx="31.81" cy="467.84" r="2.1" fill="#d6c56d"/>
<circle cx="31.81" cy="463.55" r="1.6" fill="#8adf77"/>
<circle cx="31.81" cy="460.31" r="1.6" fill="#8adf77"/>
<circle cx="31.81" cy="457.13" r="2.1" fill="#d6c56d"/>
<circle cx="31.81" cy="457.13" r="1.6" fill="#8adf77"/>
<circle cx="31.81" cy="454.96" r="1.6" fill="#8adf77"/>
<circle cx="31.81" cy="453.95" r="2.1" fill="#d6c56d"/>
<circle cx="31.81" cy="453.95" r="1.6" fill="#8adf77"/>
<circle cx="31.81" cy="451.68" r="1.6" fill="#8adf77"/>
<circle cx="31.81" cy="448.38" r="2.1" fill="#d6c56d"/>
<circle cx="31.81" cy="448.38" r="1.6" fill="#8adf77"/>
<circle cx="31.81" cy="446.25" r="1.6" fill="#8adf77"/>
<circle cx="31.81" cy="443.16" r="2.1" fill="#d6c56d"/>
<circle cx="31.81" cy="441.09" r="2.1" fill="#d6c56d"/>
<circle cx="31.81" cy="441.09" r="1.6" fill="#8adf77"/>
<circle cx="31.81" cy="438.95" r="1.6" fill="#8adf77"/>
<circle cx="31.81" cy="435.76" r="2.1" fill="#d6c56d"/>
<circle cx="31.81" cy="435.76" r="1.6" fill="#8adf77"/>
<circle cx="31.81" cy="433.69" r="1.6" fill="#8adf77"/>
<circle cx="31.81" cy="430.35" r="2.1" fill="#d6c56d"/>
<circle cx="31.81" cy="428.25" r="2.1" fill="#d6c56d"/>
<circle cx="31.81" cy="424.09" r="1.6" fill="#8adf77"/>
<circle cx="31.81" cy="423.02" r="2.1" fill="#d6c56d"/>
<circle cx="31.81" cy="423.02" r="1.6" fill="#8adf77"/>
<circle cx="31.81" cy="420.86" r="1.6" fill="#8adf77"/>
<circle cx="31.81" cy="417.65" r="2.1" fill="#d6c56d"/>
<circle cx="31.81" cy="417.65" r="1.6" fill="#8adf77"/>
<circle cx="31.81" cy="415.47" r="1.6" fill="#8adf77"/>
<circle cx="31.81" cy="412.35" r="2.1" fill="#d6c56d"/>
<circle cx="31.81" cy="410.25" r="2.1" fill="#d6c56d"/>
<circle cx="31.81" cy="410.25" r="1.6" fill="#8adf77"/>
<circle cx="31.81" cy="408.03" r="1.6" fill="#8adf77"/>
<circle cx="31.81" cy="404.71" r="2.1" fill="#d6c56d"/>
<circle cx="31.81" cy="404.71" r="1.6" fill="#8adf77"/>
<circle cx="31.81" cy="402.63" r="1.6" fill="#8adf77"/>
<circle cx="31.08" cy="399.54" r="2.1" fill="#d6c56d"/>
<circle cx="30.33" cy="397.48" r="2.1" fill="#d6c56d"/>
<circle cx="28.90" cy="393.51" r="1.6" fill="#8adf77"/>
<circle cx="28.52" cy="392.46" r="2.1" fill="#d6c56d"/>
<circle cx="27.06" cy="388.42" r="1.6" fill="#8adf77"/>
<circle cx="25.94" cy="385.32" r="1.6" fill="#8adf77"/>
<circle cx="24.87" cy="382.36" r="2.1" fill="#d6c56d"/>
<circle cx="24.87" cy="382.36" r="1.6" fill="#8adf77"/>
<circle cx="24.15" cy="380.35" r="1.6" fill="#8adf77"/>
<circle cx="23.81" cy="379.41" r="2.1" fill="#d6c56d"/>
<circle cx="22.38" cy="375.46" r="1.6" fill="#8adf77"/>
<circle cx="21.33" cy="372.54" r="1.6" fill="#8adf77"/>
<circle cx="20.27" cy="369.62" r="2.1" fill="#d6c56d"/>
<circle cx="20.27" cy="369.62" r="1.6" fill="#8adf77"/>
<circle cx="19.52" cy="367.53" r="1.6" fill="#8adf77"/>
<circle cx="18.45" cy="364.57" r="1.6" fill="#8adf77"/>
<circle cx="17.41" cy="361.70" r="2.1" fill="#d6c56d"/>
<circle cx="17.41" cy="361.70" r="1.6" fill="#8adf77"/>
<circle cx="16.70" cy="359.73" r="1.6" fill="#8adf77"/>
<circle cx="15.65" cy="356.81" r="2.1" fill="#d6c56d"/>
<circle cx="14.93" cy="354.81" r="2.1" fill="#d6c56d"/>
<circle cx="14.93" cy="354.81" r="1.6" fill="#8adf77"/>
<circle cx="14.21" cy="352.84" r="1.6" fill="#8adf77"/>
<circle cx="13.16" cy="349.93" r="2.1" fill="#d6c56d"/>
<circle cx="13.16" cy="349.93" r="1.6" fill="#8adf77"/>
<circle cx="12.46" cy="347.97" r="1.6" fill="#8adf77"/>
<circle cx="12.11" cy="347.02" r="2.1" fill="#d6c56d"/>
<circle cx="31.81" cy="401.57" r="2.1" fill="#d6c56d"/>
<circle cx="31.81" cy="397.32" r="1.6" fill="#8adf77"/>
<circle cx="31.81" cy="394.28" r="1.6" fill="#8adf77"/>
<circle cx="31.81" cy="391.23" r="2.1" fill="#d6c56d"/>
<circle cx="31.81" cy="391.23" r="1.6" fill="#8adf77"/>
<circle cx="31.81" cy="389.21" r="1.6" fill="#8adf77"/>
<circle cx="31.81" cy="385.99" r="1.6" fill="#8adf77"/>
<circle cx="31.81" cy="382.93" r="2.1" fill="#d6c56d"/>
<circle cx="31.81" cy="382.93" r="1.6" fill="#8adf77"/>
<circle cx="31.81" cy="380.84" r="1.6" fill="#8adf77"/>
<circle cx="31.81" cy="377.61" r="2.1" fill="#d6c56d"/>
<circle cx="31.81" cy="375.49" r="2.1" fill="#d6c56d"/>
<circle cx="31.81" cy="375.49" r="1.6" fill="#8adf77"/>
<circle cx="31.81" cy="373.35" r="1.6" fill="#8adf77"/>
<circle cx="31.81" cy="370.20" r="2.1" fill="#d6c56d"/>
<circle cx="31.81" cy="370.20" r="1.6" fill="#8adf77"/>
<circle cx="31.81" cy="368.06" r="1.6" fill="#8adf77"/>
<circle cx="31.81" cy="364.84" r="1.6" fill="#8adf77"/>
<circle cx="31.81" cy="361.70" r="2.1" fill="#d6c56d"/>
<circle cx="31.81" cy="361.70" r="1.6" fill="#8adf77"/>
<circle cx="31.81" cy="359.56" r="1.6" fill="#8adf77"/>
<circle cx="31.81" cy="356.45" r="2.1" fill="#d6c56d"/>
<circle cx="31.81" cy="354.45" r="2.1" fill="#d6c56d"/>
<circle cx="31.81" cy="354.45" r="1.6" fill="#8adf77"/>
<circle cx="31.81" cy="352.38" r="1.6" fill="#8adf77"/>
<circle cx="31.81" cy="349.17" r="2.1" fill="#d6c56d"/>
<circle cx="31.81" cy="349.17" r="1.6" fill="#8adf77"/>
<circle cx="31.81" cy="347.01" r="1.6" fill="#8adf77"/>
<circle cx="31.81" cy="343.82" r="2.1" fill="#d6c56d"/>
<circle cx="31.81" cy="341.75" r="2.1" fill="#d6c56d"/>
<circle cx="31.81" cy="337.55" r="1.6" fill="#8adf77"/>
<circle cx="31.81" cy="336.44" r="2.1" fill="#d6c56d"/>
<circle cx="31.81" cy="336.44" r="1.6" fill="#8adf77"/>
<circle cx="31.81" cy="334.41" r="1.6" fill="#8adf77"/>
<circle cx="31.81" cy="331.19" r="2.1" fill="#d6c56d"/>
<circle cx="31.81" cy="331.19" r="1.6" fill="#8adf77"/>
<circle cx="31.81" cy="329.02" r="1.6" fill="#8adf77"/>
<circle cx="31.81" cy="325.76" r="2.1" fill="#d6c56d"/>
<circle cx="31.81" cy="323.67" r="2.1" fill="#d6c56d"/>
<circle cx="31.81" cy="323.67" r="1.6" fill="#8adf77"/>
<circle cx="31.81" cy="321.53" r="1.6" fill="#8adf77"/>
<circle cx="31.81" cy="318.29" r="2.1" fill="#d6c56d"/>
<circle cx="31.81" cy="318.29" r="1.6" fill="#8adf77"/>
<circle cx="31.81" cy="316.24" r="1.6" fill="#8adf77"/>
<text x="332" y="292" fill="#d6c56d" font-family="monospace" font-size="11">AC_007</text>
<path d="M332.0,530.0L332.0,527.5M332.0,527.5L332.0,524.8M332.0,524.8L332.0,522.3M332.0,522.3L332.0,519.7M332.0,519.7L332.0,516.9M332.0,516.9L332.0,514.2M332.0,514.2L332.0,511.4M332.0,511.4L332.0,508.7M332.0,508.7L332.0,506.1M332.0,506.1L332.0,503.3M332.0,503.3L332.0,500.8M332.0,500.8L332.0,498.0M332.0,498.0L332.0,495.5M332.0,495.5L332.0,492.8M332.0,492.8L332.0,490.3M332.0,490.3L332.0,487.5M332.0,487.5L332.0,484.8M332.0,484.8L332.0,482.4M332.0,482.4L332.0,479.6M332.0,479.6L332.0,476.9M332.0,476.9L332.0,474.2M332.0,474.2L332.0,471.7M332.0,471.7L332.0,469.2M332.0,469.2L332.0,466.5M332.0,466.5L332.0,463.7M332.0,463.7L332.0,461.2M332.0,461.2L332.0,458.6M332.0,458.6L332.0,456.0M332.0,456.0L332.0,453.3M332.0,453.3L332.0,450.5M332.0,450.5L332.0,447.8M332.0,447.8L332.0,445.1M332.0,445.1L332.0,442.4M332.0,442.4L332.0,439.7M332.0,439.7L332.0,437.2M332.0,437.2L332.0,434.4M332.0,434.4L332.0,431.8M332.0,431.8L332.0,429.2M332.0,429.2L332.0,426.7M332.0,426.7L332.0,424.2M332.0,424.2L332.0,421.4M332.0,421.4L332.0,418.9M332.0,418.9L332.0,416.5M332.0,416.5L332.0,413.8M332.0,413.8L332.0,411.1M332.0,411.1L332.0,408.3M332.0,408.3L332.0,405.7M332.0,405.7L332.0,403.0M332.0,403.0L332.0,400.4M332.0,400.4L333.0,397.9M333.0,397.9L334.0,395.5M334.0,395.5L334.9,393.0M334.9,393.0L335.9,390.6M335.9,390.6L336.9,388.0M336.9,388.0L337.8,385.6M337.8,385.6L338.9,383.0M338.9,383.0L339.8,380.6M339.8,380.6L340.8,378.3M340.8,378.3L341.7,376.0M341.7,376.0L342.6,373.7M342.6,373.7L343.6,371.1M343.6,371.1L344.5,368.8M344.5,368.8L345.4,366.5M345.4,366.5L346.3,364.3M346.3,364.3L347.3,361.9M347.3,361.9L348.2,359.5M348.2,359.5L349.1,357.2M349.1,357.2L350.1,354.6M350.1,354.6L351.1,352.1M351.1,352.1L352.1,349.5M352.1,349.5L353.0,347.2M332.0,400.4L332.0,397.7M332.0,397.7L332.0,395.1M332.0,395.1L332.0,392.5M332.0,392.5L332.0,389.9M332.0,389.9L332.0,387.3M332.0,387.3L332.0,384.8M332.0,384.8L332.0,382.1M332.0,382.1L332.0,379.4M332.0,379.4L332.0,376.7M332.0,376.7L332.0,374.1M332.0,374.1L332.0,371.7M332.0,371.7L332.0,369.1M332.0,369.1L332.0,366.3M332.0,366.3L332.0,363.9M332.0,363.9L332.0,361.3M332.0,361.3L332.0,358.5M332.0,358.5L332.0,355.9M332.0,355.9L332.0,353.4M332.0,353.4L332.0,350.7M332.0,350.7L332.0,348.3M332.0,348.3L332.0,345.7M332.0,345.7L332.0,343.0M332.0,343.0L332.0,340.4M332.0,340.4L332.0,337.6M332.0,337.6L332.0,335.2M332.0,335.2L332.0,332.4M332.0,332.4L332.0,329.8M332.0,329.8L332.0,327.2M332.0,327.2L332.0,324.6M332.0,324.6L332.0,321.9M332.0,321.9L332.0,319.2M332.0,319.2L332.0,316.5M332.0,316.5L332.0,314.0" fill="none" stroke="#9fd8c8" stroke-width="0.7" stroke-linecap="round"/>
<circle cx="332.00" cy="524.77" r="1.6" fill="#8adf77"/>
<circle cx="332.00" cy="522.29" r="2.1" fill="#d6c56d"/>
<circle cx="332.00" cy="516.91" r="1.6" fill="#8adf77"/>
<circle cx="332.00" cy="511.36" r="1.6" fill="#8adf77"/>
<circle cx="332.00" cy="508.68" r="2.1" fill="#d6c56d"/>
<circle cx="332.00" cy="508.68" r="2.1" fill="#d6c56d"/>
<circle cx="332.00" cy="498.05" r="1.6" fill="#8adf77"/>
<circle cx="332.00" cy="492.82" r="1.6" fill="#8adf77"/>
<circle cx="332.00" cy="490.25" r="2.1" fill="#d6c56d"/>
<circle cx="332.00" cy="484.83" r="1.6" fill="#8adf77"/>
<circle cx="332.00" cy="479.65" r="1.6" fill="#8adf77"/>
<circle cx="332.00" cy="476.91" r="2.1" fill="#d6c56d"/>
<circle cx="332.00" cy="476.91" r="2.1" fill="#d6c56d"/>
<circle cx="332.00" cy="476.91" r="2.1" fill="#d6c56d"/>
<circle cx="332.00" cy="456.02" r="1.6" fill="#8adf77"/>
<circle cx="332.00" cy="453.25" r="2.1" fill="#d6c56d"/>
<circle cx="332.00" cy="453.25" r="1.6" fill="#8adf77"/>
<circle cx="332.00" cy="447.84" r="1.6" fill="#8adf77"/>
<circle cx="332.00" cy="445.06" r="2.1" fill="#d6c56d"/>
<circle cx="332.00" cy="439.71" r="1.6" fill="#8adf77"/>
<circle cx="332.00" cy="434.44" r="1.6" fill="#8adf77"/>
<circle cx="332.00" cy="431.75" r="2.1" fill="#d6c56d"/>
<circle cx="332.00" cy="431.75" r="2.1" fill="#d6c56d"/>
<circle cx="332.00" cy="421.44" r="1.6" fill="#8adf77"/>
<circle cx="332.00" cy="416.46" r="1.6" fill="#8adf77"/>
<circle cx="332.00" cy="413.77" r="2.1" fill="#d6c56d"/>
<circle cx="332.00" cy="408.30" r="1.6" fill="#8adf77"/>
<circle cx="332.00" cy="403.03" r="1.6" fill="#8adf77"/>
<circle cx="332.00" cy="400.42" r="2.1" fill="#d6c56d"/>
<circle cx="332.00" cy="400.42" r="2.1" fill="#d6c56d"/>
<circle cx="332.00" cy="400.42" r="2.1" fill="#d6c56d"/>
<circle cx="332.00" cy="400.42" r="2.1" fill="#d6c56d"/>
<circle cx="339.82" cy="380.64" r="1.6" fill="#8adf77"/>
<circle cx="340.75" cy="378.29" r="2.1" fill="#d6c56d"/>
<circle cx="344.51" cy="368.77" r="1.6" fill="#8adf77"/>
<circle cx="345.40" cy="366.53" r="2.1" fill="#d6c56d"/>
<circle cx="347.25" cy="361.85" r="1.6" fill="#8adf77"/>
<circle cx="348.20" cy="359.46" r="2.1" fill="#d6c56d"/>
<circle cx="350.12" cy="354.58" r="1.6" fill="#8adf77"/>
<circle cx="352.12" cy="349.54" r="1.6" fill="#8adf77"/>
<circle cx="353.04" cy="347.21" r="2.1" fill="#d6c56d"/>
<circle cx="353.04" cy="347.21" r="2.1" fill="#d6c56d"/>
<circle cx="332.00" cy="400.42" r="1.6" fill="#8adf77"/>
<circle cx="332.00" cy="389.92" r="1.6" fill="#8adf77"/>
<circle cx="332.00" cy="387.34" r="2.1" fill="#d6c56d"/>
<circle cx="332.00" cy="382.09" r="1.6" fill="#8adf77"/>
<circle cx="332.00" cy="379.37" r="2.1" fill="#d6c56d"/>
<circle cx="332.00" cy="374.08" r="1.6" fill="#8adf77"/>
<circle cx="332.00" cy="369.10" r="1.6" fill="#8adf77"/>
<circle cx="332.00" cy="366.31" r="2.1" fill="#d6c56d"/>
<circle cx="332.00" cy="366.31" r="2.1" fill="#d6c56d"/>
<circle cx="332.00" cy="361.32" r="1.6" fill="#8adf77"/>
<circle cx="332.00" cy="358.51" r="2.1" fill="#d6c56d"/>
<circle cx="332.00" cy="353.41" r="1.6" fill="#8adf77"/>
<circle cx="332.00" cy="348.32" r="1.6" fill="#8adf77"/>
<circle cx="332.00" cy="345.74" r="2.1" fill="#d6c56d"/>
<circle cx="332.00" cy="345.74" r="2.1" fill="#d6c56d"/>
<circle cx="332.00" cy="335.24" r="1.6" fill="#8adf77"/>
<circle cx="332.00" cy="329.80" r="1.6" fill="#8adf77"/>
<circle cx="332.00" cy="327.18" r="2.1" fill="#d6c56d"/>
<circle cx="332.00" cy="321.94" r="1.6" fill="#8adf77"/>
<circle cx="332.00" cy="316.54" r="1.6" fill="#8adf77"/>
<circle cx="332.00" cy="314.00" r="2.1" fill="#d6c56d"/>
<circle cx="332.00" cy="314.00" r="2.1" fill="#d6c56d"/>
<circle cx="332.00" cy="314.00" r="2.1" fill="#d6c56d"/>
<text x="652" y="292" fill="#d6c56d" font-family="monospace" font-size="11">AC_008</text>
<path d="M708.8,530.0L708.8,522.7M708.8,522.7L708.8,515.5M708.8,515.5L708.8,508.6M708.8,508.6L708.8,502.1M708.8,502.1L708.8,495.0M708.8,495.0L708.8,488.1M708.8,488.1L708.8,481.4M708.8,481.4L708.8,474.7M708.8,474.7L708.8,467.7M708.8,467.7L708.8,461.5M708.8,461.5L708.8,454.9M708.8,454.9L708.8,448.2M708.8,448.2L708.8,441.5M708.8,441.5L708.8,434.8M708.8,434.8L708.8,427.8M708.8,427.8L708.8,421.3M708.8,421.3L705.2,415.4M705.2,415.4L701.6,409.5M701.6,409.5L698.1,403.7M698.1,403.7L694.7,398.1M694.7,398.1L690.9,391.9M690.9,391.9L687.2,385.8M687.2,385.8L683.9,380.3M683.9,380.3L680.1,374.2M680.1,374.2L676.5,368.3M676.5,368.3L672.9,362.3M672.9,362.3L669.4,356.6M669.4,356.6L665.7,350.6M665.7,350.6L662.2,344.7M662.2,344.7L658.9,339.3M658.9,339.3L655.6,333.9M655.6,333.9L652.0,328.0M708.8,421.3L708.8,414.2M708.8,414.2L708.8,407.7M708.8,407.7L708.8,401.4M708.8,401.4L708.8,394.4M708.8,394.4L708.8,387.8M708.8,387.8L708.8,380.9M708.8,380.9L708.8,374.6M708.8,374.6L708.8,368.2M708.8,368.2L708.8,361.7M708.8,361.7L708.8,355.4M708.8,355.4L708.8,348.5M708.8,348.5L708.8,341.6M708.8,341.6L708.8,334.4M708.8,334.4L708.8,327.6M708.8,327.6L708.8,321.2M708.8,321.2L708.8,314.0" fill="none" stroke="#9fd8c8" stroke-width="0.7" stroke-linecap="round"/>
<circle cx="708.79" cy="515.55" r="1.6" fill="#8adf77"/>
<circle cx="708.79" cy="515.55" r="2.1" fill="#d6c56d"/>
<circle cx="708.79" cy="502.12" r="1.6" fill="#8adf77"/>
<circle cx="708.79" cy="502.12" r="2.1" fill="#d6c56d"/>
<circle cx="708.79" cy="474.70" r="1.6" fill="#8adf77"/>
<circle cx="708.79" cy="474.70" r="2.1" fill="#d6c56d"/>
<circle cx="708.79" cy="474.70" r="1.6" fill="#8adf77"/>
<circle cx="708.79" cy="474.70" r="2.1" fill="#d6c56d"/>
<circle cx="708.79" cy="448.20" r="1.6" fill="#8adf77"/>
<circle cx="708.79" cy="448.20" r="2.1" fill="#d6c56d"/>
<circle cx="708.79" cy="434.76" r="1.6" fill="#8adf77"/>
<circle cx="708.79" cy="434.76" r="2.1" fill="#d6c56d"/>
<circle cx="708.79" cy="421.26" r="1.6" fill="#8adf77"/>
<circle cx="708.79" cy="421.26" r="2.1" fill="#d6c56d"/>
<circle cx="708.79" cy="421.26" r="1.6" fill="#8adf77"/>
<circle cx="708.79" cy="421.26" r="2.1" fill="#d6c56d"/>
<circle cx="694.66" cy="398.05" r="1.6" fill="#8adf77"/>
<circle cx="694.66" cy="398.05" r="2.1" fill="#d6c56d"/>
<circle cx="687.20" cy="385.80" r="1.6" fill="#8adf77"/>
<circle cx="687.20" cy="385.80" r="2.1" fill="#d6c56d"/>
<circle cx="680.15" cy="374.22" r="1.6" fill="#8adf77"/>
<circle cx="680.15" cy="374.22" r="2.1" fill="#d6c56d"/>
<circle cx="672.87" cy="362.27" r="1.6" fill="#8adf77"/>
<circle cx="672.87" cy="362.27" r="2.1" fill="#d6c56d"/>
<circle cx="665.75" cy="350.58" r="1.6" fill="#8adf77"/>
<circle cx="665.75" cy="350.58" r="2.1" fill="#d6c56d"/>
<circle cx="652.00" cy="328.00" r="1.6" fill="#8adf77"/>
<circle cx="652.00" cy="328.00" r="2.1" fill="#d6c56d"/>
<circle cx="652.00" cy="328.00" r="1.6" fill="#8adf77"/>
<circle cx="652.00" cy="328.00" r="2.1" fill="#d6c56d"/>
<circle cx="708.79" cy="421.26" r="1.6" fill="#8adf77"/>
<circle cx="708.79" cy="407.70" r="1.6" fill="#8adf77"/>
<circle cx="708.79" cy="407.70" r="2.1" fill="#d6c56d"/>
<circle cx="708.79" cy="394.45" r="1.6" fill="#8adf77"/>
<circle cx="708.79" cy="394.45" r="2.1" fill="#d6c56d"/>
<circle cx="708.79" cy="368.23" r="1.6" fill="#8adf77"/>
<circle cx="708.79" cy="368.23" r="2.1" fill="#d6c56d"/>
<circle cx="708.79" cy="368.23" r="1.6" fill="#8adf77"/>
<circle cx="708.79" cy="368.23" r="2.1" fill="#d6c56d"/>
<circle cx="708.79" cy="341.58" r="1.6" fill="#8adf77"/>
<circle cx="708.79" cy="341.58" r="2.1" fill="#d6c56d"/>
<circle cx="708.79" cy="327.61" r="1.6" fill="#8adf77"/>
<circle cx="708.79" cy="327.61" r="2.1" fill="#d6c56d"/>
<circle cx="708.79" cy="314.00" r="1.6" fill="#8adf77"/>
<circle cx="708.79" cy="314.00" r="2.1" fill="#d6c56d"/>
<circle cx="708.79" cy="314.00" r="1.6" fill="#8adf77"/>
<circle cx="708.79" cy="314.00" r="2.1" fill="#d6c56d"/>
<text x="972" y="292" fill="#d6c56d" font-family="monospace" font-size="11">AC_009</text>
<path d="M1015.0,530.0L1015.0,524.3M1015.0,524.3L1015.0,518.6M1015.0,518.6L1016.7,513.1M1015.0,518.6L1015.0,512.3M1015.0,512.3L1015.0,506.2M1015.0,506.2L1017.3,500.0M1017.3,500.0L1019.5,493.8M1015.0,506.2L1015.0,500.3M1015.0,500.3L1015.0,494.6M1015.0,494.6L1015.0,488.9M1015.0,488.9L1015.0,483.3M1015.0,483.3L1017.1,477.9M1015.0,483.3L1017.6,478.1M1017.6,478.1L1020.5,472.3M1020.5,472.3L1023.2,466.8M1023.2,466.8L1025.8,461.5M1025.8,461.5L1030.6,457.2M1015.0,483.3L1015.0,476.7M1015.0,476.7L1015.0,470.4M1015.0,470.4L1015.0,464.1M1015.0,464.1L1015.0,457.6M1015.0,457.6L1017.2,451.7M1015.0,457.6L1015.0,451.6M1015.0,451.6L1015.0,445.6M1015.0,445.6L1017.3,440.4M1015.0,445.6L1015.0,439.5M1015.0,439.5L1015.0,433.6M1015.0,433.6L1017.3,427.7M1017.3,427.7L1019.6,421.6M1015.0,433.6L1017.4,428.3M1017.4,428.3L1020.0,422.6M1020.0,422.6L1022.3,417.2M1022.3,417.2L1024.9,411.4M1024.9,411.4L1029.3,406.7M1024.9,411.4L1027.3,406.0M1027.3,406.0L1029.7,400.6M1029.7,400.6L1034.1,396.6M1029.7,400.6L1032.2,394.9M1032.2,394.9L1034.8,389.3M1034.8,389.3L1038.7,384.4M1038.7,384.4L1042.5,379.6M1015.0,433.6L1012.5,428.2M1012.5,428.2L1009.9,422.6M1009.9,422.6L1007.2,416.7M1007.2,416.7L1004.8,411.6M1004.8,411.6L1004.3,405.4M1004.8,411.6L1002.1,405.8M1002.1,405.8L999.4,400.0M999.4,400.0L999.6,393.6M999.4,400.0L996.7,394.1M996.7,394.1L994.0,388.4M994.0,388.4L993.8,382.1M993.8,382.1L993.6,375.7M994.0,388.4L991.3,382.6M991.3,382.6L988.7,377.0M988.7,377.0L987.8,371.0M988.7,377.0L986.2,371.4M986.2,371.4L983.6,365.9M983.6,365.9L983.6,359.9M983.6,359.9L983.5,353.7M983.6,365.9L981.0,360.3M981.0,360.3L978.4,354.8M978.4,354.8L975.8,349.1M975.8,349.1L973.0,343.2M973.0,343.2L972.0,337.5M973.0,343.2L973.0,337.1M973.0,337.1L973.0,331.3M973.0,331.3L973.0,325.5M973.0,325.5L973.0,319.8M973.0,319.8L974.9,314.0" fill="none" stroke="#9fd8c8" stroke-width="0.7" stroke-linecap="round"/>
<circle cx="1015.04" cy="518.59" r="1.6" fill="#8adf77"/>
<circle cx="1015.04" cy="506.18" r="2.1" fill="#d6c56d"/>
<circle cx="1015.04" cy="506.18" r="1.6" fill="#8adf77"/>
<circle cx="1015.04" cy="494.64" r="2.1" fill="#d6c56d"/>
<circle cx="1015.04" cy="483.27" r="1.6" fill="#8adf77"/>
<circle cx="1015.04" cy="483.27" r="2.1" fill="#d6c56d"/>
<circle cx="1015.04" cy="483.27" r="1.6" fill="#8adf77"/>
<circle cx="1025.82" cy="461.52" r="1.6" fill="#8adf77"/>
<circle cx="1015.04" cy="470.42" r="2.1" fill="#d6c56d"/>
<circle cx="1015.04" cy="457.58" r="1.6" fill="#8adf77"/>
<circle cx="1015.04" cy="457.58" r="2.1" fill="#d6c56d"/>
<circle cx="1015.04" cy="445.56" r="1.6" fill="#8adf77"/>
<circle cx="1015.04" cy="433.63" r="2.1" fill="#d6c56d"/>
<circle cx="1015.04" cy="433.63" r="1.6" fill="#8adf77"/>
<circle cx="1015.04" cy="433.63" r="2.1" fill="#d6c56d"/>
<circle cx="1015.04" cy="433.63" r="1.6" fill="#8adf77"/>
<circle cx="1024.92" cy="411.40" r="1.6" fill="#8adf77"/>
<circle cx="1029.73" cy="400.58" r="1.6" fill="#8adf77"/>
<circle cx="1034.75" cy="389.27" r="2.1" fill="#d6c56d"/>
<circle cx="1034.75" cy="389.27" r="1.6" fill="#8adf77"/>
<circle cx="1009.91" cy="422.57" r="2.1" fill="#d6c56d"/>
<circle cx="1004.80" cy="411.56" r="1.6" fill="#8adf77"/>
<circle cx="1004.80" cy="411.56" r="2.1" fill="#d6c56d"/>
<circle cx="999.42" cy="399.97" r="1.6" fill="#8adf77"/>
<circle cx="994.04" cy="388.40" r="2.1" fill="#d6c56d"/>
<circle cx="994.04" cy="388.40" r="1.6" fill="#8adf77"/>
<circle cx="994.04" cy="388.40" r="2.1" fill="#d6c56d"/>
<circle cx="988.74" cy="376.98" r="1.6" fill="#8adf77"/>
<circle cx="983.60" cy="365.91" r="2.1" fill="#d6c56d"/>
<circle cx="983.60" cy="365.91" r="1.6" fill="#8adf77"/>
<circle cx="978.43" cy="354.77" r="2.1" fill="#d6c56d"/>
<circle cx="973.05" cy="343.18" r="1.6" fill="#8adf77"/>
<circle cx="973.05" cy="343.18" r="2.1" fill="#d6c56d"/>
<circle cx="973.05" cy="343.18" r="1.6" fill="#8adf77"/>
<circle cx="973.00" cy="319.77" r="1.6" fill="#8adf77"/>
<circle cx="973.05" cy="343.18" r="2.1" fill="#d6c56d"/>
<circle cx="1015.04" cy="433.63" r="2.1" fill="#d6c56d"/>
<circle cx="1015.04" cy="433.63" r="1.6" fill="#8adf77"/>
<text x="1292" y="292" fill="#d6c56d" font-family="monospace" font-size="11">AC_010</text>
<path d="M1325.4,530.0L1325.4,529.1M1325.4,529.1L1325.4,528.2M1325.4,528.2L1325.4,527.3M1325.4,527.3L1325.7,526.5M1325.4,527.3L1325.4,526.5M1325.4,526.5L1325.4,525.6M1325.4,525.6L1325.4,524.6M1325.4,524.6L1325.4,523.7M1325.4,523.7L1325.4,522.8M1325.4,522.8L1325.9,522.0M1325.4,522.8L1325.7,521.9M1325.7,521.9L1326.0,521.0M1325.4,522.8L1325.4,521.8M1325.4,521.8L1325.4,520.9M1325.4,520.9L1325.4,520.0M1325.4,520.0L1325.4,519.0M1325.4,519.0L1325.4,518.2M1325.4,518.2L1325.9,517.4M1325.4,518.2L1325.4,517.2M1325.4,517.2L1325.4,516.4M1325.4,516.4L1325.4,515.5M1325.4,515.5L1325.9,514.6M1325.4,515.5L1325.4,514.6M1325.4,514.6L1325.4,513.7M1325.4,513.7L1325.4,512.8M1325.4,512.8L1325.4,512.0M1325.4,512.0L1325.4,511.2M1325.4,511.2L1325.7,510.3M1325.4,511.2L1325.9,510.3M1325.9,510.3L1326.3,509.6M1325.4,511.2L1325.7,510.3M1325.7,510.3L1326.1,509.5M1326.1,509.5L1326.4,508.6M1326.4,508.6L1326.7,507.8M1326.7,507.8L1327.0,507.0M1327.0,507.0L1327.7,506.4M1325.4,511.2L1325.4,510.3M1325.4,510.3L1325.4,509.4M1325.4,509.4L1325.4,508.5M1325.4,508.5L1325.4,507.6M1325.4,507.6L1325.4,506.7M1325.4,506.7L1325.7,506.0M1325.4,506.7L1325.4,505.8M1325.4,505.8L1325.4,505.0M1325.4,505.0L1325.4,504.1M1325.4,504.1L1325.7,503.2M1325.4,504.1L1325.4,503.2M1325.4,503.2L1325.4,502.4M1325.4,502.4L1325.4,501.4M1325.4,501.4L1325.4,500.6M1325.4,500.6L1325.4,499.6M1325.4,499.6L1325.8,498.7M1325.4,499.6L1325.7,498.8M1325.7,498.8L1326.1,497.9M1325.4,499.6L1325.4,498.7M1325.4,498.7L1325.4,497.8M1325.4,497.8L1325.4,496.9M1325.4,496.9L1325.8,496.0M1325.4,496.9L1325.4,496.0M1325.4,496.0L1325.4,495.1M1325.4,495.1L1325.4,494.2M1325.4,494.2L1325.4,493.2M1325.4,493.2L1325.4,492.3M1325.4,492.3L1325.8,491.5M1325.4,492.3L1325.8,491.6M1325.8,491.6L1326.2,490.8M1325.4,492.3L1325.4,491.4M1325.4,491.4L1325.4,490.5M1325.4,490.5L1325.4,489.5M1325.4,489.5L1325.4,488.7M1325.4,488.7L1325.4,487.8M1325.4,487.8L1325.9,487.1M1325.4,487.8L1325.4,486.9M1325.4,486.9L1325.4,486.0M1325.4,486.0L1325.4,485.1M1325.4,485.1L1325.8,484.2M1325.4,485.1L1325.4,484.2M1325.4,484.2L1325.4,483.3M1325.4,483.3L1325.4,482.3M1325.4,482.3L1325.4,481.4M1325.4,481.4L1325.4,480.5M1325.4,480.5L1325.9,479.7M1325.4,480.5L1325.7,479.7M1325.7,479.7L1326.1,478.8M1325.4,480.5L1325.9,479.6M1325.9,479.6L1326.3,478.9M1326.3,478.9L1326.7,478.1M1326.7,478.1L1327.2,477.3M1327.2,477.3L1327.6,476.5M1327.6,476.5L1328.2,475.9M1325.4,480.5L1325.9,479.7M1325.9,479.7L1326.3,479.0M1326.3,479.0L1326.8,478.2M1326.8,478.2L1327.2,477.4M1327.2,477.4L1327.7,476.7M1327.7,476.7L1328.4,476.1M1327.7,476.7L1328.2,475.8M1328.2,475.8L1328.6,475.1M1328.6,475.1L1329.0,474.4M1329.0,474.4L1329.8,473.8M1329.0,474.4L1329.5,473.6M1329.5,473.6L1330.0,472.8M1330.0,472.8L1330.4,472.0M1330.4,472.0L1330.9,471.3M1330.9,471.3L1331.3,470.5M1331.3,470.5L1332.0,469.9M1331.3,470.5L1332.1,470.0M1332.1,470.0L1333.0,469.6M1325.4,480.5L1325.4,479.5M1325.4,479.5L1325.4,478.6M1325.4,478.6L1325.4,477.7M1325.4,477.7L1325.4,476.8M1325.4,476.8L1325.4,475.9M1325.4,475.9L1325.9,475.0M1325.4,475.9L1325.4,474.9M1325.4,474.9L1325.4,474.0M1325.4,474.0L1325.4,473.1M1325.4,473.1L1325.9,472.4M1325.4,473.1L1325.4,472.2M1325.4,472.2L1325.4,471.3M1325.4,471.3L1325.4,470.4M1325.4,470.4L1325.4,469.4M1325.4,469.4L1325.4,468.5M1325.4,468.5L1325.7,467.7M1325.4,468.5L1325.8,467.6M1325.8,467.6L1326.2,466.7M1325.4,468.5L1325.4,467.5M1325.4,467.5L1325.4,466.6M1325.4,466.6L1325.4,465.6M1325.4,465.6L1325.8,464.8M1325.4,465.6L1325.4,464.8M1325.4,464.8L1325.4,463.9M1325.4,463.9L1325.4,463.0M1325.4,463.0L1325.4,462.1M1325.4,462.1L1325.4,461.2M1325.4,461.2L1325.7,460.4M1325.4,461.2L1325.7,460.4M1325.7,460.4L1326.0,459.5M1325.4,461.2L1325.4,460.3M1325.4,460.3L1325.4,459.3M1325.4,459.3L1325.4,458.5M1325.4,458.5L1325.4,457.6M1325.4,457.6L1325.4,456.6M1325.4,456.6L1325.9,455.8M1325.4,456.6L1325.4,455.8M1325.4,455.8L1325.4,454.8M1325.4,454.8L1325.4,454.0M1325.4,454.0L1325.8,453.1M1325.4,454.0L1325.4,453.0M1325.4,453.0L1325.4,452.1M1325.4,452.1L1325.4,451.2M1325.4,451.2L1325.4,450.3M1325.4,450.3L1325.4,449.4M1325.4,449.4L1325.9,448.6M1325.4,449.4L1325.9,448.6M1325.9,448.6L1326.3,447.9M1325.4,449.4L1325.8,448.7M1325.8,448.7L1326.3,447.8M1326.3,447.8L1326.7,447.1M1326.7,447.1L1327.2,446.3M1327.2,446.3L1327.6,445.6M1327.6,445.6L1328.3,445.1M1325.4,449.4L1325.4,448.4M1325.4,448.4L1325.4,447.6M1325.4,447.6L1325.4,446.6M1325.4,446.6L1325.7,445.7M1325.4,446.6L1325.4,445.7M1325.4,445.7L1325.4,444.8M1325.4,444.8L1325.4,443.8M1325.4,443.8L1325.4,443.0M1325.4,443.0L1325.4,442.0M1325.4,442.0L1325.7,441.2M1325.4,442.0L1325.9,441.3M1325.9,441.3L1326.4,440.5M1325.4,442.0L1325.4,441.2M1325.4,441.2L1325.4,440.3M1325.4,440.3L1325.4,439.4M1325.4,439.4L1325.4,438.5M1325.4,438.5L1325.4,437.6M1325.4,437.6L1325.9,436.8M1325.4,437.6L1325.4,436.8M1325.4,436.8L1325.4,435.9M1325.4,435.9L1325.4,435.0M1325.4,435.0L1325.9,434.3M1325.4,435.0L1325.4,434.0M1325.4,434.0L1325.4,433.1M1325.4,433.1L1325.4,432.1M1325.4,432.1L1325.4,431.2M1325.4,431.2L1325.4,430.3M1325.4,430.3L1325.9,429.5M1325.4,430.3L1325.7,429.5M1325.7,429.5L1326.0,428.7M1325.4,430.3L1325.8,429.4M1325.8,429.4L1326.1,428.6M1326.1,428.6L1326.5,427.8M1326.5,427.8L1326.9,427.0M1326.9,427.0L1327.3,426.1M1327.3,426.1L1328.1,425.5M1325.4,430.3L1325.4,429.4M1325.4,429.4L1325.4,428.5M1325.4,428.5L1325.4,427.6M1325.4,427.6L1325.4,426.7M1325.4,426.7L1325.4,425.8M1325.4,425.8L1325.8,425.0M1325.4,425.8L1325.4,424.8M1325.4,424.8L1325.4,423.9M1325.4,423.9L1325.4,423.0M1325.4,423.0L1325.7,422.1M1325.4,423.0L1325.4,422.1M1325.4,422.1L1325.4,421.1M1325.4,421.1L1325.4,420.2M1325.4,420.2L1325.4,419.4M1325.4,419.4L1325.4,418.4M1325.4,418.4L1325.8,417.6M1325.4,418.4L1325.8,417.6M1325.8,417.6L1326.2,416.8M1325.4,418.4L1325.4,417.5M1325.4,417.5L1325.4,416.5M1325.4,416.5L1325.4,415.5M1325.4,415.5L1325.8,414.6M1325.4,415.5L1325.4,414.7M1325.4,414.7L1325.4,413.7M1325.4,413.7L1325.4,412.8M1325.4,412.8L1325.4,411.9M1325.4,411.9L1325.4,411.0M1325.4,411.0L1325.9,410.3M1325.4,411.0L1325.7,410.2M1325.7,410.2L1326.1,409.3M1325.4,411.0L1325.4,410.1M1325.4,410.1L1325.4,409.2M1325.4,409.2L1325.4,408.4M1325.4,408.4L1325.4,407.5M1325.4,407.5L1325.4,406.6M1325.4,406.6L1325.9,405.8M1325.4,406.6L1325.4,405.7M1325.4,405.7L1325.4,404.8M1325.4,404.8L1325.4,404.0M1325.4,404.0L1325.9,403.2M1325.4,404.0L1325.4,403.2M1325.4,403.2L1325.4,402.2M1325.4,402.2L1325.4,401.3M1325.4,401.3L1325.4,400.4M1325.4,400.4L1325.4,399.6M1325.4,399.6L1325.8,398.8M1325.4,399.6L1325.7,398.8M1325.7,398.8L1326.1,398.0M1325.4,399.6L1325.8,398.8M1325.8,398.8L1326.3,398.0M1326.3,398.0L1326.7,397.2M1326.7,397.2L1327.2,396.4M1327.2,396.4L1327.6,395.5M1327.6,395.5L1328.4,394.9M1325.4,399.6L1325.7,398.8M1325.7,398.8L1326.0,398.0M1326.0,398.0L1326.4,397.2M1326.4,397.2L1326.7,396.3M1326.7,396.3L1327.0,395.5M1327.0,395.5L1327.6,394.8M1327.0,395.5L1327.4,394.6M1327.4,394.6L1327.7,393.8M1327.7,393.8L1328.0,393.0M1328.0,393.0L1328.7,392.3M1328.0,393.0L1328.3,392.2M1328.3,392.2L1328.7,391.4M1328.7,391.4L1329.0,390.6M1329.0,390.6L1329.3,389.7M1329.3,389.7L1329.6,388.9M1329.6,388.9L1330.2,388.3M1329.6,388.9L1330.3,388.3M1330.3,388.3L1331.0,387.7M1325.4,399.6L1325.8,398.8M1325.8,398.8L1326.3,398.0M1326.3,398.0L1326.7,397.1M1326.7,397.1L1327.1,396.3M1327.1,396.3L1327.5,395.5M1327.5,395.5L1328.3,394.9M1327.5,395.5L1327.9,394.7M1327.9,394.7L1328.4,393.9M1328.4,393.9L1328.8,393.0M1328.8,393.0L1329.4,392.5M1328.8,393.0L1329.2,392.3M1329.2,392.3L1329.6,391.4M1329.6,391.4L1330.1,390.6M1330.1,390.6L1330.5,389.8M1330.5,389.8L1330.9,389.0M1330.9,389.0L1331.6,388.4M1330.9,389.0L1331.6,388.5M1331.6,388.5L1332.3,388.0M1330.9,389.0L1331.3,388.2M1331.3,388.2L1331.7,387.4M1331.7,387.4L1332.1,386.6M1332.1,386.6L1332.8,386.1M1332.1,386.6L1332.6,385.8M1332.6,385.8L1332.9,385.1M1332.9,385.1L1333.3,384.3M1333.3,384.3L1333.8,383.4M1333.8,383.4L1334.2,382.6M1334.2,382.6L1334.9,382.0M1334.2,382.6L1334.9,382.0M1334.9,382.0L1335.7,381.5M1334.2,382.6L1334.6,381.8M1334.6,381.8L1335.0,381.0M1335.0,381.0L1335.5,380.2M1335.5,380.2L1335.9,379.4M1335.9,379.4L1336.3,378.6M1336.3,378.6L1337.0,378.0M1336.3,378.6L1336.7,377.8M1336.7,377.8L1337.1,377.0M1337.1,377.0L1337.5,376.2M1337.5,376.2L1338.1,375.6M1337.5,376.2L1338.0,375.4M1338.0,375.4L1338.4,374.6M1338.4,374.6L1338.8,373.8M1338.8,373.8L1339.2,373.0M1339.2,373.0L1339.6,372.1M1339.6,372.1L1340.2,371.6M1339.6,372.1L1340.3,371.6M1340.3,371.6L1341.1,371.1M1339.6,372.1L1340.4,371.6M1340.4,371.6L1341.2,371.1M1341.2,371.1L1342.0,370.6M1342.0,370.6L1342.8,370.1M1342.8,370.1L1343.5,369.6M1343.5,369.6L1344.4,369.5M1325.4,399.6L1325.0,398.8M1325.0,398.8L1324.6,397.9M1324.6,397.9L1324.3,397.1M1324.3,397.1L1323.9,396.3M1323.9,396.3L1323.5,395.4M1323.5,395.4L1323.4,394.5M1323.5,395.4L1323.1,394.6M1323.1,394.6L1322.8,393.8M1322.8,393.8L1322.4,393.0M1322.4,393.0L1322.4,392.1M1322.4,393.0L1322.0,392.2M1322.0,392.2L1321.6,391.3M1321.6,391.3L1321.2,390.5M1321.2,390.5L1320.8,389.6M1320.8,389.6L1320.5,388.8M1320.5,388.8L1320.5,388.0M1320.5,388.8L1320.5,388.0M1320.5,388.0L1320.5,387.1M1320.5,388.8L1320.1,388.0M1320.1,388.0L1319.7,387.2M1319.7,387.2L1319.4,386.5M1319.4,386.5L1319.3,385.6M1319.4,386.5L1319.0,385.6M1319.0,385.6L1318.6,384.7M1318.6,384.7L1318.2,383.9M1318.2,383.9L1317.8,383.1M1317.8,383.1L1317.5,382.3M1317.5,382.3L1317.4,381.4M1317.5,382.3L1317.4,381.4M1317.4,381.4L1317.4,380.4M1317.5,382.3L1317.1,381.5M1317.1,381.5L1316.7,380.7M1316.7,380.7L1316.4,379.9M1316.4,379.9L1316.0,379.1M1316.0,379.1L1315.6,378.3M1315.6,378.3L1315.7,377.4M1315.6,378.3L1315.2,377.5M1315.2,377.5L1314.8,376.6M1314.8,376.6L1314.5,375.8M1314.5,375.8L1314.4,375.0M1314.5,375.8L1314.1,375.0M1314.1,375.0L1313.7,374.1M1313.7,374.1L1313.3,373.4M1313.3,373.4L1313.0,372.5M1313.0,372.5L1312.6,371.7M1312.6,371.7L1312.5,370.8M1312.6,371.7L1312.5,370.8M1312.5,370.8L1312.5,369.9M1312.6,371.7L1312.6,370.8M1312.6,370.8L1312.5,369.9M1312.5,369.9L1312.5,369.0M1312.5,369.0L1312.4,368.1M1312.4,368.1L1312.4,367.2M1312.4,367.2L1312.7,366.4M1312.6,371.7L1312.2,371.0M1312.2,371.0L1311.9,370.2M1311.9,370.2L1311.5,369.4M1311.5,369.4L1311.4,368.5M1311.5,369.4L1311.1,368.6M1311.1,368.6L1310.8,367.8M1310.8,367.8L1310.4,366.9M1310.4,366.9L1310.0,366.1M1310.0,366.1L1309.6,365.3M1309.6,365.3L1309.5,364.3M1309.6,365.3L1309.7,364.4M1309.7,364.4L1309.8,363.4M1309.6,365.3L1309.3,364.5M1309.3,364.5L1308.9,363.8M1308.9,363.8L1308.5,362.9M1308.5,362.9L1308.2,362.1M1308.2,362.1L1307.8,361.3M1307.8,361.3L1307.8,360.4M1307.8,361.3L1307.4,360.5M1307.4,360.5L1307.1,359.7M1307.1,359.7L1306.7,358.9M1306.7,358.9L1306.7,357.9M1306.7,358.9L1306.3,358.1M1306.3,358.1L1305.9,357.2M1305.9,357.2L1305.6,356.4M1305.6,356.4L1305.2,355.6M1305.2,355.6L1304.8,354.8M1304.8,354.8L1304.7,353.9M1304.8,354.8L1304.8,353.9M1304.8,353.9L1304.8,353.0M1304.8,354.8L1304.8,353.9M1304.8,353.9L1304.7,353.0M1304.7,353.0L1304.6,352.1M1304.6,352.1L1304.6,351.3M1304.6,351.3L1304.5,350.3M1304.5,350.3L1304.7,349.5M1304.8,354.8L1304.4,354.0M1304.4,354.0L1304.0,353.1M1304.0,353.1L1303.7,352.3M1303.7,352.3L1303.3,351.5M1303.3,351.5L1302.9,350.7M1302.9,350.7L1302.9,349.8M1302.9,350.7L1302.5,349.9M1302.5,349.9L1302.2,349.0M1302.2,349.0L1301.8,348.3M1301.8,348.3L1301.7,347.3M1301.8,348.3L1301.4,347.4M1301.4,347.4L1301.0,346.6M1301.0,346.6L1300.6,345.7M1300.6,345.7L1300.3,344.9M1300.3,344.9L1299.9,344.1M1299.9,344.1L1299.8,343.1M1299.9,344.1L1299.9,343.2M1299.9,343.2L1299.8,342.2M1299.9,344.1L1299.5,343.3M1299.5,343.3L1299.1,342.5M1299.1,342.5L1298.8,341.7M1298.8,341.7L1298.8,340.8M1298.8,341.7L1298.4,340.8M1298.4,340.8L1298.0,340.0M1298.0,340.0L1297.6,339.2M1297.6,339.2L1297.3,338.4M1297.3,338.4L1296.9,337.6M1296.9,337.6L1297.0,336.7M1296.9,337.6L1296.8,336.7M1296.8,336.7L1296.7,335.8M1296.9,337.6L1296.5,336.8M1296.5,336.8L1296.1,336.0M1296.1,336.0L1295.8,335.2M1295.8,335.2L1295.4,334.4M1295.4,334.4L1295.1,333.6M1295.1,333.6L1295.0,332.8M1295.1,333.6L1294.7,332.9M1294.7,332.9L1294.3,332.1M1294.3,332.1L1294.0,331.2M1294.0,331.2L1294.0,330.3M1294.0,331.2L1293.6,330.5M1293.6,330.5L1293.2,329.6M1293.2,329.6L1292.8,328.8M1292.8,328.8L1292.5,328.0M1292.5,328.0L1292.1,327.2M1292.1,327.2L1292.0,326.2M1292.1,327.2L1292.1,326.3M1292.1,326.3L1292.1,325.4M1292.1,327.2L1292.1,326.3M1292.1,326.3L1292.1,325.5M1292.1,325.5L1292.1,324.6M1292.1,324.6L1292.0,323.7M1292.0,323.7L1292.0,322.9M1292.0,322.9L1292.5,322.1M1292.1,327.2L1292.1,326.2M1292.1,326.2L1292.1,325.3M1292.1,325.3L1292.1,324.5M1292.1,324.5L1292.1,323.6M1292.1,323.6L1292.0,322.7M1292.0,322.7L1292.5,321.8M1292.0,322.7L1292.0,321.8M1292.0,321.8L1292.0,320.9M1292.0,320.9L1292.0,320.0M1292.0,320.0L1292.3,319.3M1292.0,320.0L1292.0,319.2M1292.0,319.2L1292.0,318.3M1292.0,318.3L1292.0,317.5M1292.0,317.5L1292.0,316.6M1292.0,316.6L1292.0,315.7M1292.0,315.7L1292.5,314.9M1292.0,315.7L1292.4,314.8M1292.4,314.8L1292.9,314.0M1325.4,399.6L1325.8,398.8M1325.8,398.8L1326.3,398.1M1326.3,398.1L1326.7,397.3M1326.7,397.3L1327.1,396.4M1327.1,396.4L1327.5,395.7M1327.5,395.7L1328.3,395.2M1327.5,395.7L1327.9,394.9M1327.9,394.9L1328.4,394.1M1328.4,394.1L1328.8,393.3M1328.8,393.3L1329.5,392.7M1328.8,393.3L1329.3,392.5M1329.3,392.5L1329.7,391.8M1329.7,391.8L1330.1,391.0M1330.1,391.0L1330.5,390.2M1330.5,390.2L1331.0,389.4M1331.0,389.4L1331.7,388.8M1331.0,389.4L1331.7,388.8M1331.7,388.8L1332.3,388.2M1331.0,389.4L1331.4,388.6M1331.4,388.6L1331.8,387.8M1331.8,387.8L1332.2,387.1M1332.2,387.1L1332.8,386.5M1332.2,387.1L1332.7,386.2M1332.7,386.2L1333.1,385.4M1333.1,385.4L1333.5,384.7M1333.5,384.7L1333.9,383.9M1333.9,383.9L1334.3,383.2M1334.3,383.2L1335.0,382.6M1334.3,383.2L1335.0,382.6M1335.0,382.6L1335.8,382.0M1334.3,383.2L1334.7,382.4M1334.7,382.4L1335.1,381.7M1335.1,381.7L1335.5,380.9M1335.5,380.9L1335.9,380.2M1335.9,380.2L1336.4,379.4M1336.4,379.4L1337.0,378.9M1336.4,379.4L1336.8,378.5M1336.8,378.5L1337.2,377.8M1337.2,377.8L1337.6,377.1M1337.6,377.1L1338.3,376.4M1337.6,377.1L1338.0,376.3M1338.0,376.3L1338.4,375.5M1338.4,375.5L1338.9,374.7M1338.9,374.7L1339.3,374.0M1339.3,374.0L1339.7,373.2M1339.7,373.2L1340.4,372.8M1339.7,373.2L1340.4,372.7M1340.4,372.7L1341.2,372.1M1339.7,373.2L1340.4,372.6M1340.4,372.6L1341.0,372.1M1341.0,372.1L1341.6,371.5M1341.6,371.5L1342.3,370.9M1342.3,370.9L1343.0,370.3M1343.0,370.3L1343.9,369.9M1339.7,373.2L1340.1,372.4M1340.1,372.4L1340.6,371.6M1340.6,371.6L1341.0,370.8M1341.0,370.8L1341.7,370.3M1341.0,370.8L1341.4,370.0M1341.4,370.0L1341.8,369.3M1341.8,369.3L1342.2,368.5M1342.2,368.5L1342.7,367.7M1342.7,367.7L1343.1,366.9M1343.1,366.9L1344.0,366.4M1343.1,366.9L1343.8,366.4M1343.8,366.4L1344.6,365.9M1343.1,366.9L1343.6,366.0M1343.6,366.0L1344.0,365.3M1344.0,365.3L1344.4,364.4M1344.4,364.4L1344.9,363.6M1344.9,363.6L1345.3,362.8M1345.3,362.8L1346.0,362.1M1345.3,362.8L1345.7,362.0M1345.7,362.0L1346.2,361.2M1346.2,361.2L1346.6,360.4M1346.6,360.4L1347.2,359.9M1346.6,360.4L1347.0,359.6M1347.0,359.6L1347.5,358.8M1347.5,358.8L1347.9,358.0M1347.9,358.0L1348.3,357.2M1348.3,357.2L1348.8,356.4M1348.8,356.4L1349.4,355.9M1348.8,356.4L1349.5,356.0M1349.5,356.0L1350.3,355.5M1348.8,356.4L1349.4,355.8M1349.4,355.8L1350.1,355.2M1350.1,355.2L1350.7,354.5M1350.7,354.5L1351.3,353.9M1351.3,353.9L1351.9,353.3M1351.9,353.3L1352.8,353.0M1348.8,356.4L1349.2,355.6M1349.2,355.6L1349.6,354.9M1349.6,354.9L1350.0,354.1M1350.0,354.1L1350.4,353.3M1350.4,353.3L1350.9,352.5M1350.9,352.5L1351.6,352.1M1350.9,352.5L1351.3,351.8M1351.3,351.8L1351.7,351.0M1351.7,351.0L1352.1,350.2M1352.1,350.2L1352.8,349.6M1352.1,350.2L1352.5,349.4M1352.5,349.4L1353.0,348.6M1353.0,348.6L1353.4,347.8M1353.4,347.8L1353.8,347.0M1353.8,347.0L1354.2,346.2M1354.2,346.2L1355.0,345.6M1354.2,346.2L1355.0,345.6M1355.0,345.6L1355.6,345.1M1354.2,346.2L1354.7,345.4M1354.7,345.4L1355.1,344.6M1355.1,344.6L1355.5,343.9M1355.5,343.9L1356.2,343.2M1355.5,343.9L1355.9,343.1M1355.9,343.1L1356.4,342.3M1356.4,342.3L1356.8,341.6M1356.8,341.6L1357.2,340.7M1357.2,340.7L1357.6,340.0M1357.6,340.0L1358.3,339.5M1357.6,340.0L1358.4,339.4M1358.4,339.4L1359.2,338.9M1357.6,340.0L1358.0,339.2M1358.0,339.2L1358.5,338.4M1358.5,338.4L1358.9,337.6M1358.9,337.6L1359.3,336.8M1359.3,336.8L1359.8,336.0M1359.8,336.0L1360.5,335.3M1359.8,336.0L1360.2,335.2M1360.2,335.2L1360.7,334.4M1360.7,334.4L1361.1,333.6M1361.1,333.6L1361.8,333.0M1361.1,333.6L1361.5,332.8M1361.5,332.8L1361.9,332.0M1361.9,332.0L1362.4,331.2M1362.4,331.2L1362.8,330.5M1362.8,330.5L1363.2,329.7M1363.2,329.7L1363.9,329.1M1363.2,329.7L1364.0,329.3M1364.0,329.3L1364.7,328.8M1363.2,329.7L1363.9,329.2M1363.9,329.2L1364.5,328.6M1364.5,328.6L1365.2,328.1M1365.2,328.1L1365.9,327.5M1365.9,327.5L1366.6,326.9M1366.6,326.9L1367.4,326.8M1363.2,329.7L1363.8,329.1M1363.8,329.1L1364.5,328.5M1364.5,328.5L1365.1,327.9M1365.1,327.9L1365.7,327.3M1365.7,327.3L1366.3,326.7M1366.3,326.7L1367.2,326.4M1366.3,326.7L1367.0,326.1M1367.0,326.1L1367.6,325.6M1367.6,325.6L1368.2,325.0M1368.2,325.0L1369.1,324.7M1368.2,325.0L1368.8,324.4M1368.8,324.4L1369.4,323.8M1369.4,323.8L1370.1,323.2M1370.1,323.2L1370.8,322.5M1370.8,322.5L1371.4,321.9M1371.4,321.9L1372.2,321.6M1371.4,321.9L1372.2,321.6M1372.2,321.6L1373.1,321.3" fill="none" stroke="#9fd8c8" stroke-width="0.7" stroke-linecap="round"/>
<circle cx="1325.42" cy="528.23" r="1.6" fill="#8adf77"/>
<circle cx="1325.42" cy="525.58" r="2.1" fill="#d6c56d"/>
<circle cx="1325.42" cy="525.58" r="1.6" fill="#8adf77"/>
<circle cx="1325.42" cy="523.72" r="1.6" fill="#8adf77"/>
<circle cx="1325.42" cy="520.90" r="2.1" fill="#d6c56d"/>
<circle cx="1325.42" cy="519.05" r="1.6" fill="#8adf77"/>
<circle cx="1325.42" cy="518.20" r="2.1" fill="#d6c56d"/>
<circle cx="1325.42" cy="518.20" r="1.6" fill="#8adf77"/>
<circle cx="1325.42" cy="516.39" r="1.6" fill="#8adf77"/>
<circle cx="1325.42" cy="513.74" r="2.1" fill="#d6c56d"/>
<circle cx="1325.42" cy="513.74" r="1.6" fill="#8adf77"/>
<circle cx="1325.42" cy="511.99" r="1.6" fill="#8adf77"/>
<circle cx="1326.72" cy="507.81" r="1.6" fill="#8adf77"/>
<circle cx="1325.42" cy="509.45" r="2.1" fill="#d6c56d"/>
<circle cx="1325.42" cy="507.55" r="1.6" fill="#8adf77"/>
<circle cx="1325.42" cy="506.73" r="2.1" fill="#d6c56d"/>
<circle cx="1325.42" cy="504.96" r="1.6" fill="#8adf77"/>
<circle cx="1325.42" cy="502.37" r="2.1" fill="#d6c56d"/>
<circle cx="1325.42" cy="502.37" r="1.6" fill="#8adf77"/>
<circle cx="1325.42" cy="500.57" r="1.6" fill="#8adf77"/>
<circle cx="1325.42" cy="499.62" r="2.1" fill="#d6c56d"/>
<circle cx="1325.42" cy="499.62" r="1.6" fill="#8adf77"/>
<circle cx="1325.42" cy="497.78" r="1.6" fill="#8adf77"/>
<circle cx="1325.42" cy="495.06" r="2.1" fill="#d6c56d"/>
<circle cx="1325.42" cy="495.06" r="1.6" fill="#8adf77"/>
<circle cx="1325.42" cy="493.21" r="1.6" fill="#8adf77"/>
<circle cx="1325.42" cy="490.48" r="2.1" fill="#d6c56d"/>
<circle cx="1325.42" cy="488.67" r="1.6" fill="#8adf77"/>
<circle cx="1325.42" cy="487.81" r="2.1" fill="#d6c56d"/>
<circle cx="1325.42" cy="487.81" r="1.6" fill="#8adf77"/>
<circle cx="1325.42" cy="485.96" r="1.6" fill="#8adf77"/>
<circle cx="1325.42" cy="483.30" r="2.1" fill="#d6c56d"/>
<circle cx="1325.42" cy="483.30" r="1.6" fill="#8adf77"/>
<circle cx="1325.42" cy="481.39" r="1.6" fill="#8adf77"/>
<circle cx="1327.15" cy="477.33" r="1.6" fill="#8adf77"/>
<circle cx="1327.22" cy="477.41" r="1.6" fill="#8adf77"/>
<circle cx="1328.58" cy="475.11" r="1.6" fill="#8adf77"/>
<circle cx="1329.95" cy="472.80" r="2.1" fill="#d6c56d"/>
<circle cx="1329.95" cy="472.80" r="1.6" fill="#8adf77"/>
<circle cx="1330.86" cy="471.27" r="1.6" fill="#8adf77"/>
<circle cx="1325.42" cy="478.59" r="2.1" fill="#d6c56d"/>
<circle cx="1325.42" cy="476.83" r="1.6" fill="#8adf77"/>
<circle cx="1325.42" cy="475.87" r="2.1" fill="#d6c56d"/>
<circle cx="1325.42" cy="474.04" r="1.6" fill="#8adf77"/>
<circle cx="1325.42" cy="471.34" r="2.1" fill="#d6c56d"/>
<circle cx="1325.42" cy="471.34" r="1.6" fill="#8adf77"/>
<circle cx="1325.42" cy="469.42" r="1.6" fill="#8adf77"/>
<circle cx="1325.42" cy="468.47" r="2.1" fill="#d6c56d"/>
<circle cx="1325.42" cy="466.60" r="1.6" fill="#8adf77"/>
<circle cx="1325.42" cy="463.93" r="2.1" fill="#d6c56d"/>
<circle cx="1325.42" cy="463.93" r="1.6" fill="#8adf77"/>
<circle cx="1325.42" cy="462.08" r="1.6" fill="#8adf77"/>
<circle cx="1325.42" cy="459.35" r="2.1" fill="#d6c56d"/>
<circle cx="1325.42" cy="457.60" r="1.6" fill="#8adf77"/>
<circle cx="1325.42" cy="456.65" r="2.1" fill="#d6c56d"/>
<circle cx="1325.42" cy="456.65" r="1.6" fill="#8adf77"/>
<circle cx="1325.42" cy="454.82" r="1.6" fill="#8adf77"/>
<circle cx="1325.42" cy="452.13" r="2.1" fill="#d6c56d"/>
<circle cx="1325.42" cy="452.13" r="1.6" fill="#8adf77"/>
<circle cx="1325.42" cy="450.28" r="1.6" fill="#8adf77"/>
<circle cx="1327.19" cy="446.31" r="1.6" fill="#8adf77"/>
<circle cx="1325.42" cy="449.38" r="2.1" fill="#d6c56d"/>
<circle cx="1325.42" cy="449.38" r="1.6" fill="#8adf77"/>
<circle cx="1325.42" cy="447.55" r="1.6" fill="#8adf77"/>
<circle cx="1325.42" cy="444.76" r="2.1" fill="#d6c56d"/>
<circle cx="1325.42" cy="444.76" r="1.6" fill="#8adf77"/>
<circle cx="1325.42" cy="442.98" r="1.6" fill="#8adf77"/>
<circle cx="1325.42" cy="440.27" r="2.1" fill="#d6c56d"/>
<circle cx="1325.42" cy="438.46" r="1.6" fill="#8adf77"/>
<circle cx="1325.42" cy="437.61" r="2.1" fill="#d6c56d"/>
<circle cx="1325.42" cy="437.61" r="1.6" fill="#8adf77"/>
<circle cx="1325.42" cy="435.95" r="1.6" fill="#8adf77"/>
<circle cx="1325.42" cy="433.08" r="2.1" fill="#d6c56d"/>
<circle cx="1325.42" cy="433.08" r="1.6" fill="#8adf77"/>
<circle cx="1325.42" cy="431.19" r="1.6" fill="#8adf77"/>
<circle cx="1326.91" cy="426.96" r="1.6" fill="#8adf77"/>
<circle cx="1325.42" cy="428.47" r="2.1" fill="#d6c56d"/>
<circle cx="1325.42" cy="426.71" r="1.6" fill="#8adf77"/>
<circle cx="1325.42" cy="425.75" r="2.1" fill="#d6c56d"/>
<circle cx="1325.42" cy="423.93" r="1.6" fill="#8adf77"/>
<circle cx="1325.42" cy="421.13" r="2.1" fill="#d6c56d"/>
<circle cx="1325.42" cy="421.13" r="1.6" fill="#8adf77"/>
<circle cx="1325.42" cy="419.36" r="1.6" fill="#8adf77"/>
<circle cx="1325.42" cy="418.44" r="2.1" fill="#d6c56d"/>
<circle cx="1325.42" cy="418.44" r="1.6" fill="#8adf77"/>
<circle cx="1325.42" cy="416.51" r="1.6" fill="#8adf77"/>
<circle cx="1325.42" cy="413.73" r="2.1" fill="#d6c56d"/>
<circle cx="1325.42" cy="413.73" r="1.6" fill="#8adf77"/>
<circle cx="1325.42" cy="411.89" r="1.6" fill="#8adf77"/>
<circle cx="1325.42" cy="409.22" r="2.1" fill="#d6c56d"/>
<circle cx="1325.42" cy="407.51" r="1.6" fill="#8adf77"/>
<circle cx="1325.42" cy="406.60" r="2.1" fill="#d6c56d"/>
<circle cx="1325.42" cy="406.60" r="1.6" fill="#8adf77"/>
<circle cx="1325.42" cy="404.83" r="1.6" fill="#8adf77"/>
<circle cx="1325.42" cy="402.21" r="2.1" fill="#d6c56d"/>
<circle cx="1325.42" cy="402.21" r="1.6" fill="#8adf77"/>
<circle cx="1325.42" cy="400.45" r="1.6" fill="#8adf77"/>
<circle cx="1327.17" cy="396.36" r="1.6" fill="#8adf77"/>
<circle cx="1326.72" cy="396.30" r="1.6" fill="#8adf77"/>
<circle cx="1327.71" cy="393.80" r="1.6" fill="#8adf77"/>
<circle cx="1328.65" cy="391.39" r="2.1" fill="#d6c56d"/>
<circle cx="1328.65" cy="391.39" r="1.6" fill="#8adf77"/>
<circle cx="1329.30" cy="389.75" r="1.6" fill="#8adf77"/>
<circle cx="1327.14" cy="396.28" r="1.6" fill="#8adf77"/>
<circle cx="1328.39" cy="393.87" r="1.6" fill="#8adf77"/>
<circle cx="1329.65" cy="391.44" r="2.1" fill="#d6c56d"/>
<circle cx="1329.65" cy="391.44" r="1.6" fill="#8adf77"/>
<circle cx="1330.49" cy="389.81" r="1.6" fill="#8adf77"/>
<circle cx="1331.74" cy="387.39" r="1.6" fill="#8adf77"/>
<circle cx="1332.94" cy="385.06" r="2.1" fill="#d6c56d"/>
<circle cx="1332.94" cy="385.06" r="1.6" fill="#8adf77"/>
<circle cx="1333.78" cy="383.44" r="1.6" fill="#8adf77"/>
<circle cx="1335.04" cy="381.00" r="2.1" fill="#d6c56d"/>
<circle cx="1335.87" cy="379.40" r="1.6" fill="#8adf77"/>
<circle cx="1336.28" cy="378.60" r="2.1" fill="#d6c56d"/>
<circle cx="1336.28" cy="378.60" r="1.6" fill="#8adf77"/>
<circle cx="1337.11" cy="376.99" r="1.6" fill="#8adf77"/>
<circle cx="1338.36" cy="374.58" r="2.1" fill="#d6c56d"/>
<circle cx="1338.36" cy="374.58" r="1.6" fill="#8adf77"/>
<circle cx="1339.18" cy="372.99" r="1.6" fill="#8adf77"/>
<circle cx="1342.75" cy="370.06" r="1.6" fill="#8adf77"/>
<circle cx="1324.64" cy="397.92" r="2.1" fill="#d6c56d"/>
<circle cx="1323.88" cy="396.27" r="1.6" fill="#8adf77"/>
<circle cx="1323.48" cy="395.39" r="2.1" fill="#d6c56d"/>
<circle cx="1322.77" cy="393.85" r="1.6" fill="#8adf77"/>
<circle cx="1321.60" cy="391.32" r="2.1" fill="#d6c56d"/>
<circle cx="1321.60" cy="391.32" r="1.6" fill="#8adf77"/>
<circle cx="1320.82" cy="389.61" r="1.6" fill="#8adf77"/>
<circle cx="1320.46" cy="388.83" r="2.1" fill="#d6c56d"/>
<circle cx="1319.73" cy="387.24" r="1.6" fill="#8adf77"/>
<circle cx="1318.57" cy="384.72" r="2.1" fill="#d6c56d"/>
<circle cx="1318.57" cy="384.72" r="1.6" fill="#8adf77"/>
<circle cx="1317.83" cy="383.11" r="1.6" fill="#8adf77"/>
<circle cx="1316.72" cy="380.71" r="2.1" fill="#d6c56d"/>
<circle cx="1315.99" cy="379.12" r="1.6" fill="#8adf77"/>
<circle cx="1315.62" cy="378.31" r="2.1" fill="#d6c56d"/>
<circle cx="1315.62" cy="378.31" r="1.6" fill="#8adf77"/>
<circle cx="1314.84" cy="376.62" r="1.6" fill="#8adf77"/>
<circle cx="1313.70" cy="374.15" r="2.1" fill="#d6c56d"/>
<circle cx="1313.70" cy="374.15" r="1.6" fill="#8adf77"/>
<circle cx="1312.97" cy="372.55" r="1.6" fill="#8adf77"/>
<circle cx="1312.43" cy="368.13" r="1.6" fill="#8adf77"/>
<circle cx="1312.59" cy="371.73" r="2.1" fill="#d6c56d"/>
<circle cx="1311.89" cy="370.21" r="1.6" fill="#8adf77"/>
<circle cx="1310.78" cy="367.79" r="2.1" fill="#d6c56d"/>
<circle cx="1310.78" cy="367.79" r="1.6" fill="#8adf77"/>
<circle cx="1310.00" cy="366.10" r="1.6" fill="#8adf77"/>
<circle cx="1308.92" cy="363.75" r="2.1" fill="#d6c56d"/>
<circle cx="1308.17" cy="362.12" r="1.6" fill="#8adf77"/>
<circle cx="1307.81" cy="361.33" r="2.1" fill="#d6c56d"/>
<circle cx="1307.81" cy="361.33" r="1.6" fill="#8adf77"/>
<circle cx="1307.07" cy="359.73" r="1.6" fill="#8adf77"/>
<circle cx="1305.92" cy="357.23" r="2.1" fill="#d6c56d"/>
<circle cx="1305.92" cy="357.23" r="1.6" fill="#8adf77"/>
<circle cx="1305.16" cy="355.59" r="1.6" fill="#8adf77"/>
<circle cx="1304.60" cy="351.28" r="1.6" fill="#8adf77"/>
<circle cx="1304.03" cy="353.14" r="2.1" fill="#d6c56d"/>
<circle cx="1303.27" cy="351.48" r="1.6" fill="#8adf77"/>
<circle cx="1302.92" cy="350.72" r="2.1" fill="#d6c56d"/>
<circle cx="1302.15" cy="349.05" r="1.6" fill="#8adf77"/>
<circle cx="1301.02" cy="346.59" r="2.1" fill="#d6c56d"/>
<circle cx="1301.02" cy="346.59" r="1.6" fill="#8adf77"/>
<circle cx="1300.27" cy="344.95" r="1.6" fill="#8adf77"/>
<circle cx="1299.87" cy="344.09" r="2.1" fill="#d6c56d"/>
<circle cx="1299.87" cy="344.09" r="1.6" fill="#8adf77"/>
<circle cx="1299.13" cy="342.47" r="1.6" fill="#8adf77"/>
<circle cx="1297.99" cy="340.00" r="2.1" fill="#d6c56d"/>
<circle cx="1297.99" cy="340.00" r="1.6" fill="#8adf77"/>
<circle cx="1297.26" cy="338.41" r="1.6" fill="#8adf77"/>
<circle cx="1296.14" cy="335.97" r="2.1" fill="#d6c56d"/>
<circle cx="1295.41" cy="334.39" r="1.6" fill="#8adf77"/>
<circle cx="1295.06" cy="333.64" r="2.1" fill="#d6c56d"/>
<circle cx="1295.06" cy="333.64" r="1.6" fill="#8adf77"/>
<circle cx="1294.35" cy="332.08" r="1.6" fill="#8adf77"/>
<circle cx="1293.21" cy="329.62" r="2.1" fill="#d6c56d"/>
<circle cx="1293.21" cy="329.62" r="1.6" fill="#8adf77"/>
<circle cx="1292.46" cy="327.97" r="1.6" fill="#8adf77"/>
<circle cx="1292.05" cy="323.71" r="1.6" fill="#8adf77"/>
<circle cx="1292.05" cy="323.61" r="1.6" fill="#8adf77"/>
<circle cx="1292.04" cy="320.88" r="1.6" fill="#8adf77"/>
<circle cx="1292.02" cy="318.33" r="2.1" fill="#d6c56d"/>
<circle cx="1292.02" cy="318.33" r="1.6" fill="#8adf77"/>
<circle cx="1292.01" cy="316.56" r="1.6" fill="#8adf77"/>
<circle cx="1292.08" cy="327.15" r="2.1" fill="#d6c56d"/>
<circle cx="1326.25" cy="398.07" r="2.1" fill="#d6c56d"/>
<circle cx="1327.14" cy="396.43" r="1.6" fill="#8adf77"/>
<circle cx="1327.54" cy="395.70" r="2.1" fill="#d6c56d"/>
<circle cx="1328.40" cy="394.09" r="1.6" fill="#8adf77"/>
<circle cx="1329.67" cy="391.76" r="2.1" fill="#d6c56d"/>
<circle cx="1329.67" cy="391.76" r="1.6" fill="#8adf77"/>
<circle cx="1330.53" cy="390.15" r="1.6" fill="#8adf77"/>
<circle cx="1330.96" cy="389.36" r="2.1" fill="#d6c56d"/>
<circle cx="1331.79" cy="387.83" r="1.6" fill="#8adf77"/>
<circle cx="1333.07" cy="385.45" r="2.1" fill="#d6c56d"/>
<circle cx="1333.07" cy="385.45" r="1.6" fill="#8adf77"/>
<circle cx="1333.91" cy="383.90" r="1.6" fill="#8adf77"/>
<circle cx="1335.12" cy="381.67" r="2.1" fill="#d6c56d"/>
<circle cx="1335.91" cy="380.20" r="1.6" fill="#8adf77"/>
<circle cx="1336.36" cy="379.36" r="2.1" fill="#d6c56d"/>
<circle cx="1336.36" cy="379.36" r="1.6" fill="#8adf77"/>
<circle cx="1337.20" cy="377.81" r="1.6" fill="#8adf77"/>
<circle cx="1338.44" cy="375.50" r="2.1" fill="#d6c56d"/>
<circle cx="1338.44" cy="375.50" r="1.6" fill="#8adf77"/>
<circle cx="1339.27" cy="373.98" r="1.6" fill="#8adf77"/>
<circle cx="1342.34" cy="370.90" r="1.6" fill="#8adf77"/>
<circle cx="1339.67" cy="373.24" r="2.1" fill="#d6c56d"/>
<circle cx="1340.57" cy="371.58" r="1.6" fill="#8adf77"/>
<circle cx="1341.81" cy="369.27" r="2.1" fill="#d6c56d"/>
<circle cx="1341.81" cy="369.27" r="1.6" fill="#8adf77"/>
<circle cx="1342.67" cy="367.68" r="1.6" fill="#8adf77"/>
<circle cx="1343.98" cy="365.27" r="2.1" fill="#d6c56d"/>
<circle cx="1344.89" cy="363.58" r="1.6" fill="#8adf77"/>
<circle cx="1345.33" cy="362.76" r="2.1" fill="#d6c56d"/>
<circle cx="1345.33" cy="362.76" r="1.6" fill="#8adf77"/>
<circle cx="1346.17" cy="361.21" r="1.6" fill="#8adf77"/>
<circle cx="1347.46" cy="358.82" r="2.1" fill="#d6c56d"/>
<circle cx="1347.46" cy="358.82" r="1.6" fill="#8adf77"/>
<circle cx="1348.32" cy="357.23" r="1.6" fill="#8adf77"/>
<circle cx="1351.33" cy="353.90" r="1.6" fill="#8adf77"/>
<circle cx="1349.59" cy="354.88" r="2.1" fill="#d6c56d"/>
<circle cx="1350.42" cy="353.34" r="1.6" fill="#8adf77"/>
<circle cx="1350.85" cy="352.53" r="2.1" fill="#d6c56d"/>
<circle cx="1351.70" cy="350.97" r="1.6" fill="#8adf77"/>
<circle cx="1352.97" cy="348.62" r="2.1" fill="#d6c56d"/>
<circle cx="1352.97" cy="348.62" r="1.6" fill="#8adf77"/>
<circle cx="1353.83" cy="347.02" r="1.6" fill="#8adf77"/>
<circle cx="1354.25" cy="346.25" r="2.1" fill="#d6c56d"/>
<circle cx="1354.25" cy="346.25" r="1.6" fill="#8adf77"/>
<circle cx="1355.12" cy="344.64" r="1.6" fill="#8adf77"/>
<circle cx="1356.36" cy="342.33" r="2.1" fill="#d6c56d"/>
<circle cx="1356.36" cy="342.33" r="1.6" fill="#8adf77"/>
<circle cx="1357.23" cy="340.73" r="1.6" fill="#8adf77"/>
<circle cx="1358.48" cy="338.42" r="2.1" fill="#d6c56d"/>
<circle cx="1359.35" cy="336.81" r="1.6" fill="#8adf77"/>
<circle cx="1359.79" cy="335.98" r="2.1" fill="#d6c56d"/>
<circle cx="1359.79" cy="335.98" r="1.6" fill="#8adf77"/>
<circle cx="1360.66" cy="334.37" r="1.6" fill="#8adf77"/>
<circle cx="1361.92" cy="332.04" r="2.1" fill="#d6c56d"/>
<circle cx="1361.92" cy="332.04" r="1.6" fill="#8adf77"/>
<circle cx="1362.78" cy="330.46" r="1.6" fill="#8adf77"/>
<circle cx="1365.86" cy="327.53" r="1.6" fill="#8adf77"/>
<circle cx="1365.74" cy="327.30" r="1.6" fill="#8adf77"/>
<circle cx="1367.58" cy="325.55" r="1.6" fill="#8adf77"/>
<circle cx="1369.45" cy="323.78" r="2.1" fill="#d6c56d"/>
<circle cx="1369.45" cy="323.78" r="1.6" fill="#8adf77"/>
<circle cx="1370.79" cy="322.51" r="1.6" fill="#8adf77"/>
<circle cx="1363.18" cy="329.71" r="2.1" fill="#d6c56d"/>
<circle cx="1325.42" cy="399.61" r="2.1" fill="#d6c56d"/>
</svg>